<?xml version="1.0" encoding="utf-8"?>
<!-- Generator: Adobe Illustrator 28.1.0, SVG Export Plug-In . SVG Version: 6.00 Build 0)  -->
<svg version="1.1" id="Vrstva_1" xmlns="http://www.w3.org/2000/svg" xmlns:xlink="http://www.w3.org/1999/xlink" x="0px" y="0px"
	 viewBox="0 0 283.5 283.5" style="enable-background:new 0 0 283.5 283.5;" xml:space="preserve">
<style type="text/css">
	.st0{fill:none;}
</style>
<g>
	<path class="st0" d="M235.4,64h-41.5v7.5h-18V64h-42.5v7.5h-7v29.7l11.6-2.4V81.9c0-3.3,2.7-6,6-6h81.1c3.3,0,6,2.7,6,6v62
		c0,3.3-2.7,6-6,6h-57.8v11.6h8.6v-7.2h18v7.2h41.5v-7.2h7.2v-31.6h-7.2v-18.5h7.2V71.5h-7.2V64z"/>
	<path class="st0" d="M227.1,143.9v-5.5l-20.5-21l-9.2,10.4c-0.4,0.4-0.9,0.7-1.4,0.7c-0.5,0-1.1-0.2-1.5-0.6l-18.6-17.9l-8.6,7.2
		v28.6h57.8C226.2,145.9,227.1,145,227.1,143.9z"/>
	<path class="st0" d="M177.4,106l18.4,17.7l9.2-10.4c0.4-0.4,0.9-0.7,1.4-0.7c0.6,0,1.1,0.2,1.5,0.6l19.2,19.6V81.9c0-1.1-0.9-2-2-2
		H144c-1.1,0-2,0.9-2,2v16l22.9-4.8c0.6-0.1,1.2,0,1.7,0.4c0.5,0.4,0.7,0.9,0.7,1.6v17l7.4-6.2C175.5,105.2,176.6,105.3,177.4,106z
		 M211.8,85.2c5.6,0,10.2,4.6,10.2,10.2c0,5.6-4.6,10.2-10.2,10.2s-10.2-4.6-10.2-10.2C201.6,89.8,206.2,85.2,211.8,85.2z"/>
	<path class="st0" d="M211.8,101.6c3.4,0,6.2-2.8,6.2-6.2c0-3.4-2.8-6.2-6.2-6.2s-6.2,2.8-6.2,6.2
		C205.6,98.8,208.4,101.6,211.8,101.6z"/>
	<path d="M231.1,143.9v-62c0-3.3-2.7-6-6-6H144c-3.3,0-6,2.7-6,6v16.9l4-0.8v-16c0-1.1,0.9-2,2-2h81.1c1.1,0,2,0.9,2,2v50.8l3.4,3.5
		l-2.9,2.8l-0.6-0.6v5.5c0,1.1-0.9,2-2,2h-57.8v4h57.8C228.4,149.9,231.1,147.2,231.1,143.9z"/>
	<path d="M194.5,127.9c0.4,0.4,0.9,0.6,1.5,0.6c0.5,0,1.1-0.3,1.4-0.7l9.2-10.4l20.5,21l0.6,0.6l2.9-2.8l-3.4-3.5l-19.2-19.6
		c-0.4-0.4-0.9-0.6-1.5-0.6c-0.6,0-1.1,0.3-1.4,0.7l-9.2,10.4L177.4,106c-0.7-0.7-1.9-0.7-2.7-0.1l-7.4,6.2v5.2l8.6-7.2L194.5,127.9
		z"/>
	<path d="M211.8,105.6c5.6,0,10.2-4.6,10.2-10.2c0-5.6-4.6-10.2-10.2-10.2s-10.2,4.6-10.2,10.2C201.6,101,206.2,105.6,211.8,105.6z
		 M211.8,89.2c3.4,0,6.2,2.8,6.2,6.2c0,3.4-2.8,6.2-6.2,6.2s-6.2-2.8-6.2-6.2C205.6,92,208.4,89.2,211.8,89.2z"/>
	<rect x="193.9" y="60" width="41.5" height="4"/>
	<rect x="133.4" y="60" width="42.5" height="4"/>
	<polygon points="126.4,71.5 122.4,71.5 122.4,102 126.4,101.2 	"/>
	<rect x="242.6" y="71.5" width="4" height="32.7"/>
	<rect x="242.6" y="122.7" width="4" height="31.6"/>
	<rect x="193.9" y="161.5" width="41.5" height="4"/>
	<rect x="167.3" y="161.5" width="8.6" height="4"/>
	<path d="M193.9,154.3h-18v7.2v4v7.3h18v-7.3v-4V154.3z M179.9,168.8v-10.5h10v10.5H179.9z"/>
	<path d="M235.4,154.3v7.2v4v7.3h18v-18.5h-6.8h-4H235.4z M249.4,168.8h-10v-10.5h10V168.8z"/>
	<path d="M133.4,71.5V64v-4v-7h-18v18.5h7h4H133.4z M119.4,57h10v10.5h-10V57z"/>
	<path d="M175.9,71.5h18V64v-4v-7h-18v7v4V71.5z M189.9,57v10.5h-10V57H189.9z"/>
	<path d="M235.4,71.5h7.2h4h6.8V53h-18v7v4V71.5z M249.4,57v10.5h-10V57H249.4z"/>
	<path d="M235.4,104.2v18.5h7.2h4h6.8v-18.5h-6.8h-4H235.4z M249.4,118.7h-10v-10.5h10V118.7z"/>
	<path d="M98.7,216.5c-0.1,0-0.3,0-0.4-0.1C98.4,216.5,98.6,216.5,98.7,216.5z"/>
	<path d="M142.9,203.2l-42.2,8.8v2.5c0,0.6-0.3,1.2-0.8,1.6c-0.4,0.3-0.8,0.4-1.2,0.4c0.1,0,0.3,0,0.4,0l44.4-9.3
		c-0.2-0.3-0.3-0.6-0.3-0.9L142.9,203.2z"/>
	<path d="M167.3,149.9v-4v-28.6v-5.2v-17c0-0.6-0.3-1.2-0.7-1.6c-0.5-0.4-1.1-0.5-1.7-0.4L142,97.9l-4,0.8l-11.6,2.4l-4,0.8
		L98.7,107l0.4,0.1c0.9,0.2,1.5,1,1.5,1.9v1.6l62.6-13.1v81l4,1.5v-14.5v-4V149.9z"/>
	<path d="M100.7,214.5V212V110.6V109c0-0.9-0.6-1.7-1.5-1.9l-0.4-0.1L32.6,91.1c-0.6-0.1-1.2,0-1.7,0.4c-0.5,0.4-0.8,1-0.8,1.6
		v105.5c0,0.9,0.6,1.7,1.5,1.9l66.6,16c0,0,0,0,0,0c0.1,0,0.3,0.1,0.4,0.1c0.4,0,0.9-0.1,1.2-0.4
		C100.4,215.7,100.7,215.1,100.7,214.5z M34.1,95.5l62.6,15V212l-62.6-15V95.5z"/>
	<path d="M88.8,170.2L43,159.3c-0.6-0.1-1.2,0-1.7,0.4c-0.5,0.4-0.8,1-0.8,1.6V187c0,0.9,0.6,1.7,1.5,1.9l45.8,10.9
		c0.2,0,0.3,0.1,0.5,0.1c0.4,0,0.9-0.1,1.2-0.4c0.5-0.4,0.8-1,0.8-1.6v-25.8C90.3,171.2,89.7,170.4,88.8,170.2z M86.3,195.4
		l-41.8-9.9v-21.7l41.8,9.9V195.4z"/>
	<path d="M158.8,149.8c0-0.6-0.3-1.2-0.8-1.6c-0.5-0.4-1.1-0.5-1.7-0.4L108,159.3c-0.9,0.2-1.5,1-1.5,1.9l-0.3,25.7
		c0,0.6,0.3,1.2,0.7,1.6c0.4,0.3,0.8,0.4,1.3,0.4c0.2,0,0.3,0,0.5-0.1l32.1-7.6l-0.4-4l-30.1,7.1l0.3-21.6l44.3-10.5l-0.3,21.6
		l-2.4,0.6l6,2.2c0.2-0.3,0.4-0.7,0.4-1.2L158.8,149.8z"/>
	<path d="M90,119.9l-48.3-11.6c-1.1-0.3-2.2,0.4-2.4,1.5c-0.3,1.1,0.4,2.2,1.5,2.4L89,123.7c0.2,0,0.3,0.1,0.5,0.1
		c0.9,0,1.7-0.6,1.9-1.5C91.7,121.2,91,120.1,90,119.9z"/>
	<path d="M90,132.5l-48.3-11.6c-1.1-0.3-2.2,0.4-2.4,1.5c-0.3,1.1,0.4,2.2,1.5,2.4L89,136.3c0.2,0,0.3,0.1,0.5,0.1
		c0.9,0,1.7-0.6,1.9-1.5C91.7,133.8,91,132.7,90,132.5z"/>
	<path d="M90,145.1l-48.3-11.6c-1.1-0.3-2.2,0.4-2.4,1.5c-0.3,1.1,0.4,2.2,1.5,2.4L89,148.9c0.2,0,0.3,0.1,0.5,0.1
		c0.9,0,1.7-0.6,1.9-1.5C91.7,146.4,91,145.3,90,145.1z"/>
	<path d="M90,157.6L41.7,146c-1.1-0.3-2.2,0.4-2.4,1.5c-0.3,1.1,0.4,2.2,1.5,2.4L89,161.4c0.2,0,0.3,0.1,0.5,0.1
		c0.9,0,1.7-0.6,1.9-1.5C91.7,158.9,91,157.8,90,157.6z"/>
	<path d="M140.4,131.4c0.4,0.3,0.8,0.4,1.2,0.4c0.2,0,0.3,0,0.5-0.1l13.8-3.5c0.9-0.2,1.5-1,1.5-1.9v-15.2c0-0.6-0.3-1.2-0.8-1.6
		c-0.5-0.4-1.1-0.5-1.7-0.4l-13.8,3.4c-0.9,0.2-1.5,1-1.5,1.9v15.3C139.6,130.4,139.9,131,140.4,131.4z M143.6,116.1l9.8-2.4v11.1
		l-9.8,2.5V116.1z"/>
	<path d="M108,124.4c0.1,0,0.3,0,0.5-0.1l23.9-5.5c1.1-0.2,1.7-1.3,1.5-2.4c-0.2-1.1-1.3-1.7-2.4-1.5l-23.9,5.5
		c-1.1,0.2-1.7,1.3-1.5,2.4C106.3,123.8,107.1,124.4,108,124.4z"/>
	<path d="M132.1,126.6l-24.5,5.6c-1.1,0.2-1.8,1.3-1.5,2.4c0.2,0.9,1,1.6,1.9,1.6c0.1,0,0.3,0,0.4-0.1l24.5-5.6
		c1.1-0.2,1.8-1.3,1.5-2.4C134.2,127,133.1,126.3,132.1,126.6z"/>
	<path d="M107.8,150.7c0.2,0,0.3,0,0.5-0.1l48.2-11.6c1.1-0.3,1.7-1.3,1.5-2.4c-0.3-1.1-1.3-1.7-2.4-1.5l-48.2,11.6
		c-1.1,0.3-1.7,1.3-1.5,2.4C106.1,150.1,106.9,150.7,107.8,150.7z"/>
	<path d="M106.4,199c0.2,0.9,1,1.5,1.9,1.5c0.2,0,0.3,0,0.5-0.1l33.1-7.9l-0.4-4l-33.6,8.1C106.8,196.8,106.1,197.9,106.4,199z"/>
	<path d="M161.6,216.2l1.2-0.9L147.1,205l-2.5-25.4l-4.3-5.4c-0.2-0.3-0.4-0.7-0.4-1.1c0,0,0,0,0,0l0.4,4.2l0.4,4l0.7,7.2l0.4,4
		l1.1,10.7l0.3,3.1c0,0.3,0.1,0.6,0.3,0.9c0.1,0.2,0.3,0.4,0.6,0.6l17.1,11.2l0,0C160.5,218.1,160.7,216.8,161.6,216.2z"/>
	<path d="M141.1,171.1c0,0,0.1,0,0.1,0C141.2,171.1,141.1,171.1,141.1,171.1z"/>
	<path d="M141.5,170.9c0,0,0.1,0,0.1,0C141.6,170.9,141.6,170.9,141.5,170.9z"/>
	<path d="M142,170.9C142,170.9,142.1,170.9,142,170.9C142.1,170.9,142,170.9,142,170.9z"/>
	<path d="M139.9,172.6c0,0,0-0.1,0-0.1C139.9,172.5,139.9,172.6,139.9,172.6z"/>
	<path d="M140.7,171.3C140.7,171.3,140.7,171.3,140.7,171.3C140.7,171.3,140.7,171.3,140.7,171.3
		C140.7,171.3,140.7,171.3,140.7,171.3z"/>
	<path d="M140,172.2c0,0,0-0.1,0.1-0.1C140.1,172.1,140.1,172.1,140,172.2z"/>
	<path d="M140.3,171.8c0,0,0-0.1,0.1-0.1C140.3,171.7,140.3,171.7,140.3,171.8z"/>
	<path d="M163.3,178.6l-5.2-1.9l-6-2.2l-9.5-3.5c0,0,0,0,0,0c0.3,0.1,0.7,0.3,0.9,0.7l4.3,5.5l23.9,8.7l6.2,17.6l1.2-1
		c0.4-0.3,0.9-0.5,1.5-0.4c0.5,0.1,1,0.3,1.3,0.7l-6.8-19.2c-0.2-0.6-0.6-1-1.2-1.2l-6.6-2.4L163.3,178.6z"/>
	<path d="M180.5,202.1c-0.5-0.1-1.1,0.1-1.5,0.4l-1.2,1l-15.1,11.7l-1.2,0.9c-0.9,0.7-1,1.9-0.3,2.8l0,0l8.3,10.7
		c0.3,0.4,0.8,0.7,1.3,0.8c0.1,0,0.2,0,0.2,0c0.4,0,0.9-0.1,1.2-0.4l17.5-13.6c0.9-0.7,1-1.9,0.3-2.8l-8.4-10.7c0,0,0,0,0,0
		C181.5,202.4,181.1,202.2,180.5,202.1z M171.5,225.7l-5.9-7.6l14.4-11.2l5.9,7.6L171.5,225.7z"/>
	<path d="M142,170.9c-0.1,0-0.2,0-0.4,0c0,0-0.1,0-0.1,0c-0.1,0-0.2,0.1-0.3,0.1c0,0-0.1,0-0.1,0c-0.1,0.1-0.3,0.1-0.4,0.2
		c0,0,0,0,0,0c0,0,0,0,0,0c-0.1,0.1-0.2,0.2-0.3,0.3c0,0,0,0.1-0.1,0.1c-0.1,0.1-0.1,0.2-0.2,0.3c0,0,0,0.1-0.1,0.1
		c0,0.1-0.1,0.2-0.1,0.3c0,0,0,0.1,0,0.1c0,0.2,0,0.3,0,0.5c0,0.4,0.2,0.7,0.4,1.1l4.3,5.4l13.6,17.4c0.4,0.5,1,0.8,1.6,0.8
		c0.4,0,0.9-0.1,1.2-0.4c0.9-0.7,1-1.9,0.3-2.8l-13.5-17.3l-4.3-5.5c-0.2-0.3-0.6-0.5-0.9-0.7C142.4,171,142.3,170.9,142,170.9
		C142.1,170.9,142,170.9,142,170.9z"/>
</g>
</svg>
