<?xml version="1.0" encoding="utf-8"?>
<!-- Generator: Adobe Illustrator 28.1.0, SVG Export Plug-In . SVG Version: 6.00 Build 0)  -->
<svg version="1.1" id="Vrstva_1" xmlns="http://www.w3.org/2000/svg" xmlns:xlink="http://www.w3.org/1999/xlink" x="0px" y="0px"
	 viewBox="0 0 1096.3 1096.3" style="enable-background:new 0 0 1096.3 1096.3;" xml:space="preserve">
<style type="text/css">
	.st0{fill:#D9D9D9;}
	.st1{fill:none;stroke:#BDBCBC;}
	.st2{fill:#621123;}
	.st3{fill:#010202;}
</style>
<circle class="st0" cx="548.1" cy="548.1" r="548"/>
<circle class="st1" cx="548.8" cy="547.8" r="379"/>
<g>
	<circle class="st2" cx="548.8" cy="547.8" r="309.5"/>
</g>
<line class="st1" x1="653" y1="162.1" x2="685.8" y2="41.5"/>
<line class="st1" x1="410.7" y1="1053.8" x2="443.5" y2="933.2"/>
<line class="st1" x1="446.2" y1="161.7" x2="414.3" y2="40.8"/>
<line class="st1" x1="682.2" y1="1055" x2="650.3" y2="934.2"/>
<line class="st1" x1="266.9" y1="264.6" x2="178.8" y2="175.9"/>
<line class="st1" x1="917.9" y1="920.3" x2="829.8" y2="831.6"/>
<line class="st1" x1="163.2" y1="443" x2="42.6" y2="410.2"/>
<line class="st1" x1="1054.8" y1="685.3" x2="934.2" y2="652.6"/>
<line class="st1" x1="162.8" y1="649.8" x2="41.9" y2="681.7"/>
<line class="st1" x1="1056.1" y1="413.9" x2="935.2" y2="445.8"/>
<line class="st1" x1="265.7" y1="829.1" x2="177" y2="917.2"/>
<line class="st1" x1="921.4" y1="178.1" x2="832.7" y2="266.2"/>
<path class="st3" d="M473,1011.4c0,1.7-0.4,3.2-1.1,4.4c-0.8,1.2-1.8,2.1-3.3,2.7c-1.4,0.6-3.1,0.9-5.1,0.9h-5.4v10.2h-3.4v-25.8
	h8.9c3,0,5.3,0.7,7,1.9C472.2,1007,473,1008.9,473,1011.4z M469.5,1011.5c0-1.6-0.5-2.7-1.5-3.5c-1-0.8-2.5-1.1-4.5-1.1h-5.4v9.4
	h5.4c2,0,3.5-0.4,4.4-1.2C469,1014.3,469.5,1013.1,469.5,1011.5z M491,1029.6h-3.3c-0.2-0.4-0.3-0.7-0.4-1c-0.1-0.2-0.2-0.7-0.3-1.3
	c-0.9,1-1.9,1.7-2.9,2.1c-1,0.4-2.2,0.6-3.5,0.6c-1.2,0-2.2-0.2-3.1-0.7c-0.9-0.5-1.6-1.1-2.1-1.9c-0.5-0.8-0.7-1.8-0.7-2.8
	c0-1.6,0.5-2.9,1.6-3.8c1-0.9,2.8-1.6,5.1-2c2.5-0.4,4.3-0.7,5.3-1.1v-0.5c0-1-0.1-1.9-0.4-2.5c-0.3-0.6-0.7-1-1.3-1.3
	c-0.6-0.3-1.4-0.4-2.4-0.4c-1.3,0-2.3,0.3-3,0.9c-0.7,0.6-1.2,1.5-1.4,2.7l-3.1-0.5c0.4-1.9,1.2-3.3,2.5-4.3c1.3-0.9,3-1.4,5.2-1.4
	c1.7,0,3,0.2,4,0.6c1,0.4,1.8,1.1,2.3,2c0.5,0.9,0.8,2.2,0.8,3.8v6.7c0,1.2,0,2.1,0.1,2.7c0.1,0.6,0.2,1.2,0.3,1.6
	C490.5,1028.5,490.7,1029,491,1029.6z M481.6,1021.5c-1.3,0.2-2.2,0.6-2.8,1.1c-0.6,0.5-0.9,1.2-0.9,2c0,0.9,0.3,1.6,0.9,2.1
	c0.6,0.5,1.4,0.8,2.5,0.8c0.9,0,1.9-0.3,2.9-0.9c0.7-0.4,1.2-0.9,1.6-1.3c0.4-0.5,0.6-1.1,0.8-1.7c0.2-0.7,0.2-1.6,0.2-2.7v-0.7
	c-0.3,0.1-0.9,0.3-1.9,0.5C483.9,1021,482.8,1021.3,481.6,1021.5z M502.6,1013.1c-1.8,0-3.3,0.6-4.3,1.9c-1,1.2-1.5,3-1.5,5.3
	c0,1.4,0.2,2.7,0.7,3.7c0.4,1.1,1.1,1.9,1.9,2.5s1.8,0.9,3,0.9c1.3,0,2.5-0.4,3.3-1.2c0.9-0.8,1.4-2,1.6-3.4l3.1,0.5
	c-0.2,1.4-0.7,2.6-1.4,3.6c-0.8,1-1.7,1.8-2.9,2.3c-1.2,0.6-2.5,0.8-3.8,0.8c-1.7,0-3.2-0.4-4.6-1.2c-1.3-0.8-2.3-1.9-3.1-3.4
	c-0.7-1.5-1.1-3.2-1.1-5.2c0-2.1,0.4-3.9,1.1-5.3c0.7-1.5,1.8-2.6,3.1-3.3c1.3-0.8,2.9-1.1,4.7-1.1c1.3,0,2.5,0.2,3.6,0.7
	c1.1,0.5,2,1.1,2.7,2c0.7,0.9,1.2,1.9,1.4,3.2l-3.1,0.5c-0.3-1.2-0.8-2.1-1.6-2.8C504.7,1013.4,503.7,1013.1,502.6,1013.1z
	 M516.8,1018.5l7.5-7.6h4.1l-6.9,6.7l7.7,11.9h-3.8l-6.1-9.7l-2.4,2.3v7.4h-3.2v-25.8h3.2V1018.5z M535.1,1007.4H532v-3.6h3.2
	V1007.4z M535.1,1029.6H532v-18.6h3.2V1029.6z M552.1,1029.6v-12.2c0-1.4-0.3-2.4-1-3.1c-0.7-0.7-1.6-1.1-2.9-1.1
	c-1.6,0-2.8,0.5-3.7,1.4c-0.9,1-1.3,2.5-1.3,4.5v10.4H540v-18.6h3v2.6c0.6-0.9,1.4-1.7,2.4-2.2c1-0.5,2.1-0.8,3.3-0.8
	c2.2,0,3.8,0.5,4.9,1.7c1.1,1.1,1.7,2.7,1.7,4.8v12.6H552.1z M572.6,1010.9h3v17.1c0,3-0.7,5.3-2,6.8c-1.3,1.5-3.5,2.3-6.4,2.3
	c-2.3,0-4.1-0.5-5.3-1.6c-1.3-1-1.9-2.5-2.1-4.4l3.1,0.5c0.2,1,0.6,1.8,1.3,2.2c0.7,0.5,1.7,0.7,3,0.7c1.8,0,3.1-0.4,4-1.4
	c0.9-0.9,1.3-2.8,1.3-5.6v-0.4c-1.4,1.6-3.1,2.4-5.3,2.4c-1.6,0-3-0.4-4.3-1.2c-1.2-0.8-2.2-1.9-2.9-3.4c-0.7-1.4-1-3.1-1-4.9
	c0-1.9,0.3-3.6,0.9-5c0.6-1.5,1.5-2.6,2.7-3.4c1.2-0.8,2.6-1.2,4.3-1.2c1.3,0,2.4,0.2,3.3,0.7c0.9,0.4,1.7,1.1,2.4,2h0.1V1010.9z
	 M567.1,1013.1c-1,0-1.8,0.3-2.6,0.8c-0.8,0.5-1.3,1.3-1.8,2.3c-0.4,1-0.6,2.3-0.6,3.7c0,1.5,0.2,2.7,0.6,3.8c0.4,1,1,1.9,1.8,2.4
	c0.8,0.6,1.7,0.9,2.8,0.9c1.1,0,2-0.3,2.8-0.9c0.8-0.6,1.4-1.4,1.8-2.4c0.4-1.1,0.6-2.3,0.6-3.7c0-1.4-0.2-2.6-0.7-3.7
	c-0.4-1.1-1.1-1.8-1.9-2.4C569.2,1013.4,568.2,1013.1,567.1,1013.1z M593.5,1013L593.5,1013c1.5-1.7,3.4-2.5,5.6-2.5
	c1.6,0,3.1,0.4,4.3,1.2c1.2,0.8,2.2,1.9,2.8,3.3c0.7,1.4,1,3.1,1,5c0,2.1-0.4,3.9-1.1,5.4c-0.7,1.5-1.7,2.7-3,3.4
	c-1.3,0.8-2.7,1.2-4.3,1.2c-1.2,0-2.2-0.2-3.2-0.7c-0.9-0.5-1.7-1.2-2.3-2.1h-0.1v2.3h-3v-25.8h3.2V1013z M598.8,1013.1
	c-1.1,0-2.1,0.3-2.9,0.9s-1.5,1.4-2,2.5c-0.5,1.1-0.7,2.3-0.7,3.7c0,2.4,0.5,4.2,1.4,5.4c0.9,1.2,2.3,1.9,4.1,1.9
	c1.1,0,2-0.3,2.8-0.9c0.8-0.6,1.4-1.4,1.8-2.5c0.4-1.1,0.7-2.4,0.7-3.8s-0.2-2.7-0.6-3.8c-0.4-1.1-1-1.9-1.8-2.5
	C600.8,1013.4,599.9,1013.1,598.8,1013.1z M609.8,1020.3c0-2,0.4-3.8,1.1-5.2c0.7-1.5,1.7-2.6,3.1-3.4c1.3-0.8,2.9-1.2,4.6-1.2
	c1.7,0,3.3,0.4,4.6,1.1c1.3,0.8,2.3,1.9,3.1,3.3c0.7,1.4,1.1,3.2,1.1,5.3c0,2-0.4,3.8-1.1,5.3c-0.7,1.5-1.8,2.6-3.1,3.4
	c-1.3,0.8-2.8,1.1-4.6,1.1c-1.7,0-3.2-0.4-4.5-1.1c-1.3-0.8-2.3-1.9-3.1-3.3C610.1,1024.1,609.8,1022.4,609.8,1020.3z M618.5,1013.1
	c-1.1,0-2,0.3-2.8,0.8c-0.8,0.5-1.5,1.3-2,2.4c-0.5,1.1-0.7,2.4-0.7,3.9c0,1.5,0.2,2.8,0.7,3.9c0.5,1.1,1.1,1.9,1.9,2.4
	c0.8,0.5,1.8,0.8,2.9,0.8c1.1,0,2.1-0.3,2.9-0.8c0.8-0.6,1.5-1.4,1.9-2.5c0.5-1.1,0.7-2.4,0.7-3.9c0-1.5-0.2-2.8-0.7-3.9
	c-0.5-1.1-1.1-1.9-2-2.4C620.5,1013.4,619.6,1013.1,618.5,1013.1z M635.1,1015.2c0.6,0.9,1.1,1.7,1.5,2.4c0.4-0.8,0.9-1.5,1.4-2.3
	l3-4.4h3.7l-6.2,8.9l6.7,9.7h-3.8l-3.1-4.6c-0.5-0.8-1.1-1.7-1.7-2.8c-0.5,0.8-0.9,1.4-1.2,2l-3.6,5.4h-3.7l6.7-9.6l-6.2-9h3.8
	L635.1,1015.2z"/>
<path class="st3" d="M572.2,90.3h12.9v-8h-11.6v-3.1h11.6V67.6h3.4v25.8h-16.3V90.3z M570.8,76.9c0,2-0.4,3.8-1.1,5.2
	c-0.7,1.5-1.7,2.6-3.1,3.4c-1.3,0.8-2.9,1.2-4.6,1.2c-1.7,0-3.3-0.4-4.6-1.1c-1.3-0.8-2.3-1.9-3.1-3.3c-0.7-1.5-1.1-3.2-1.1-5.3
	c0-2.1,0.4-3.8,1.1-5.3c0.7-1.5,1.8-2.6,3.1-3.4c1.3-0.8,2.8-1.1,4.6-1.1c1.7,0,3.2,0.4,4.5,1.1c1.3,0.8,2.3,1.9,3.1,3.3
	C570.4,73,570.8,74.8,570.8,76.9z M562.1,84.1c1.1,0,2-0.3,2.8-0.8c0.8-0.5,1.5-1.3,2-2.4c0.5-1.1,0.7-2.4,0.7-3.9
	c0-1.5-0.2-2.8-0.7-3.9c-0.5-1.1-1.1-1.9-1.9-2.4c-0.8-0.5-1.8-0.8-2.9-0.8c-1.1,0-2.1,0.3-2.9,0.8c-0.8,0.6-1.5,1.4-1.9,2.5
	c-0.5,1.1-0.7,2.4-0.7,3.9c0,1.5,0.2,2.8,0.7,3.9c0.5,1.1,1.1,1.9,2,2.4C560,83.8,561,84.1,562.1,84.1z M546.3,86.2h-3.5v-2.4h3.5
	V72.5c0-0.7-0.1-1.2-0.2-1.5c-0.1-0.3-0.3-0.6-0.6-0.7c-0.2-0.1-0.6-0.2-1-0.2c-0.4,0-1,0.1-1.8,0.2l-0.4-2.6
	c0.9-0.2,1.8-0.3,2.7-0.3c1.1,0,2,0.2,2.6,0.5c0.6,0.3,1.1,0.8,1.4,1.5c0.3,0.6,0.4,1.8,0.4,3.4v11h2.7v2.4h-2.7v4.3l-3.2,2.3V86.2z
	 M536.3,78.7l-7.5,7.6h-4.1l6.9-6.7l-7.7-11.9h3.8l6.1,9.7l2.4-2.3v-7.4h3.2v25.8h-3.2V78.7z M516,75.5c-0.4-1-0.6-1.8-0.8-2.3
	c-0.2-0.5-0.4-1.2-0.6-2.1h-0.1c-0.2,1-0.4,1.8-0.5,2.2c-0.1,0.4-0.5,1.4-1,2.7l-3.7,10.2h-3.2l7.6-20c0.6-1.6,1.2-2.9,1.8-3.7
	c0.6-0.9,1.2-1.5,1.8-1.9c0.6-0.4,1.4-0.5,2.3-0.5c0.3,0,0.8,0,1.3,0.1c0.5,0.1,1,0.1,1.4,0.2l-0.7,2.7c-0.5-0.2-1-0.3-1.4-0.3
	c-0.7,0-1.2,0.2-1.7,0.5c-0.4,0.3-0.8,0.8-1.1,1.4c-0.3,0.6-0.5,1.2-0.8,1.8c-0.2,0.6-0.4,1-0.4,1.1l7.1,18.7h-3.4L516,75.5z"/>
<path class="st3" d="M739.7,971.5c0.6,1,0.9,2.1,0.8,3.3c-0.1,1.1-0.4,2.2-1.2,3.2c1.5-0.4,2.9-0.4,4.2,0.1c1.3,0.5,2.3,1.5,3.1,2.8
	c0.8,1.4,1.1,2.7,1.1,4c-0.1,1.3-0.5,2.6-1.4,3.8c-0.9,1.2-2.1,2.2-3.8,3.2l-8.7,5l-12.9-22.3l8.2-4.8c1.6-0.9,3.1-1.5,4.4-1.6
	c1.4-0.2,2.6,0,3.6,0.6C738.2,969.5,739,970.4,739.7,971.5z M736.8,973.3c-0.6-1-1.4-1.5-2.5-1.6c-1.1-0.1-2.5,0.4-4.2,1.4l-4.6,2.7
	l3.9,6.7l5-2.9c1.5-0.9,2.5-1.8,2.9-2.8C737.7,975.7,737.5,974.6,736.8,973.3z M743.6,982.8c-0.8-1.3-1.8-2.1-3.1-2.1
	c-1.3-0.1-2.8,0.4-4.7,1.5l-5,2.9l4.4,7.7l5.4-3.1c1.8-1,2.9-2.1,3.4-3.2C744.5,985.3,744.3,984.1,743.6,982.8z M766.9,977.9
	l-2.9,1.7c-0.4-0.2-0.6-0.5-0.8-0.7c-0.2-0.2-0.5-0.5-0.9-1c-0.3,1.3-0.8,2.4-1.4,3.2s-1.5,1.7-2.7,2.3c-1,0.6-2,0.9-3,1
	c-1,0.1-1.9-0.2-2.7-0.6c-0.8-0.5-1.5-1.2-2-2.1c-0.8-1.4-1-2.8-0.6-4.1c0.4-1.3,1.6-2.8,3.5-4.3c2-1.6,3.3-2.8,4.1-3.6l-0.2-0.4
	c-0.5-0.9-1-1.5-1.6-1.9c-0.5-0.4-1.1-0.5-1.8-0.5c-0.6,0.1-1.4,0.3-2.3,0.8c-1.1,0.6-1.8,1.4-2.2,2.2c-0.3,0.9-0.3,1.9,0.1,3.1
	l-2.9,1.1c-0.6-1.8-0.6-3.5,0.1-4.9c0.7-1.5,1.9-2.8,3.8-3.8c1.4-0.8,2.7-1.3,3.8-1.5c1.1-0.2,2.1,0,3,0.6c0.9,0.6,1.8,1.5,2.6,2.9
	l3.3,5.8c0.6,1,1,1.8,1.4,2.3c0.4,0.5,0.7,0.9,1.1,1.3C765.9,977.2,766.4,977.6,766.9,977.9z M754.8,975.6c-1,0.8-1.6,1.6-1.8,2.3
	c-0.2,0.7-0.1,1.5,0.3,2.2c0.5,0.8,1.1,1.2,1.8,1.4c0.8,0.1,1.6-0.1,2.6-0.6c0.8-0.5,1.5-1.2,2-2.2c0.4-0.7,0.6-1.3,0.7-1.9
	c0.1-0.6,0-1.2-0.2-1.9c-0.2-0.7-0.6-1.5-1.1-2.4l-0.3-0.6c-0.2,0.2-0.6,0.7-1.4,1.4C756.5,974.1,755.7,974.8,754.8,975.6z
	 M780.7,970l-6.1-10.6c-0.7-1.2-1.5-1.9-2.4-2.2c-0.9-0.3-1.9-0.1-3,0.5c-1.4,0.8-2.2,1.8-2.5,3.1c-0.3,1.3,0.1,2.8,1.1,4.6l5.2,9
	l-2.7,1.6l-9.3-16.2l2.6-1.5l1.3,2.3c0.1-1.1,0.4-2.2,1-3.1c0.6-1,1.4-1.8,2.5-2.4c1.9-1.1,3.6-1.4,5.1-1c1.5,0.4,2.8,1.5,3.8,3.3
	l6.3,10.9L780.7,970z M798,960l-6.1-10.6c-0.7-1.2-1.5-1.9-2.4-2.2c-0.9-0.3-1.9-0.1-3,0.5c-1.4,0.8-2.2,1.8-2.5,3.1
	c-0.3,1.3,0.1,2.8,1.1,4.6l5.2,9l-2.7,1.6l-9.3-16.2l2.6-1.5l1.3,2.3c0.1-1.1,0.4-2.2,1-3.1c0.6-1,1.4-1.8,2.5-2.3
	c1.9-1.1,3.6-1.4,5.1-1c1.5,0.4,2.8,1.5,3.8,3.3l6.3,10.9L798,960z M810.6,950.2c1-0.6,1.8-1.4,2.2-2.5c0.4-1.1,0.5-2.2,0.2-3.3
	l2.9-1.1c0.5,1.9,0.4,3.7-0.4,5.3c-0.7,1.6-2,2.9-3.7,3.9c-1.5,0.9-3.1,1.3-4.6,1.3c-1.5,0-3-0.5-4.3-1.4c-1.3-0.9-2.5-2.2-3.5-3.9
	c-1-1.7-1.6-3.4-1.7-5.1c-0.1-1.6,0.2-3.1,0.9-4.5c0.7-1.4,1.9-2.5,3.4-3.4c1.5-0.9,3-1.3,4.5-1.2c1.5,0,2.9,0.5,4.2,1.5
	c1.3,0.9,2.5,2.3,3.6,4.1l0.3,0.6l-12.1,7c0.7,1.1,1.5,2,2.4,2.6c0.9,0.6,1.8,0.9,2.8,0.9C808.7,951,809.7,950.8,810.6,950.2z
	 M803.2,937.9c-0.8,0.5-1.4,1.1-1.9,1.8c-0.4,0.8-0.7,1.6-0.7,2.6c0,0.9,0.2,1.9,0.6,2.9l9.1-5.3c-1-1.4-2.2-2.3-3.4-2.6
	C805.8,937,804.5,937.2,803.2,937.9z M820.5,928.7c-1.2,0.7-1.8,1.6-1.9,2.9c-0.1,1.2,0.3,2.7,1.2,4.3l5,8.6l-2.7,1.6l-9.3-16.2
	l2.6-1.5l1.4,2.4c0-1.4,0.2-2.4,0.6-3.2s1-1.4,1.9-1.9c0.5-0.3,1-0.5,1.5-0.6c0.5-0.1,1-0.2,1.6-0.2l0.5,3.1
	C822,928.1,821.2,928.3,820.5,928.7z M834.1,930.1c0.8,0.7,1.4,1.2,1.8,1.6c0.4,0.4,0.9,0.9,1.5,1.5l0.1,0c-0.3-1-0.5-1.8-0.6-2.2
	c-0.1-0.5-0.3-1.4-0.5-2.9l-1.9-10.7l2.8-1.6l3.5,21.1c0.3,1.7,0.4,3.1,0.4,4.1c0,1.1-0.3,1.9-0.6,2.5c-0.4,0.6-1,1.2-1.7,1.6
	c-0.3,0.2-0.7,0.3-1.2,0.5c-0.5,0.2-0.9,0.4-1.3,0.5l-0.8-2.6c0.5-0.1,1-0.2,1.4-0.5c0.6-0.3,1-0.8,1.2-1.3c0.2-0.5,0.3-1.1,0.2-1.7
	c0-0.6-0.1-1.3-0.2-1.9c-0.1-0.7-0.2-1.1-0.2-1.2l-15.5-12.6l3-1.7L834.1,930.1z"/>
<path class="st3" d="M338.3,135.6c-0.9-1.5-1.3-2.9-1.2-4.3c0.1-1.4,0.5-2.7,1.5-4c0.9-1.2,2.2-2.3,3.9-3.3l4.7-2.7l-5.1-8.9l3-1.7
	L358,133l-7.7,4.5c-2.6,1.5-4.9,2.1-7,1.8C341.2,138.9,339.6,137.7,338.3,135.6z M341.4,133.7c0.8,1.4,1.8,2.1,3,2.3
	c1.2,0.2,2.7-0.3,4.5-1.3l4.7-2.7l-4.7-8.2l-4.7,2.7c-1.7,1-2.8,2.1-3.3,3.3C340.4,131,340.5,132.3,341.4,133.7z M327.9,138.8
	c1.2-0.7,1.8-1.6,1.9-2.9c0.1-1.2-0.3-2.7-1.2-4.3l-5-8.6l2.7-1.6l9.3,16.2l-2.6,1.5l-1.4-2.4c0,1.4-0.2,2.4-0.6,3.2
	c-0.4,0.8-1,1.4-1.9,1.9c-0.5,0.3-1,0.5-1.5,0.6c-0.5,0.1-1,0.2-1.6,0.2l-0.5-3.1C326.5,139.5,327.2,139.3,327.9,138.8z
	 M323.5,148.8l2.7-1.6l1.8,3.1l-2.7,1.6L323.5,148.8z M312.4,129.6l2.7-1.6l9.3,16.2l-2.7,1.6L312.4,129.6z M297.7,138l6.1,10.6
	c0.7,1.2,1.5,1.9,2.4,2.2c0.9,0.3,1.9,0.1,3-0.5c1.4-0.8,2.2-1.8,2.5-3.1c0.3-1.3-0.1-2.8-1.1-4.6l-5.2-9l2.7-1.6l9.3,16.2l-2.6,1.5
	l-1.3-2.3c-0.1,1.1-0.4,2.2-1,3.1c-0.6,1-1.4,1.7-2.5,2.4c-1.9,1.1-3.6,1.4-5.1,1c-1.5-0.4-2.8-1.5-3.8-3.3l-6.3-10.9L297.7,138z
	 M296.9,160l-3.1,1.8l-1.2-2.1l3.1-1.8l-5.7-9.8c-0.3-0.6-0.7-1-0.9-1.3c-0.3-0.2-0.6-0.3-0.8-0.3c-0.3,0-0.6,0.2-1,0.4
	c-0.4,0.2-0.8,0.6-1.4,1.1l-1.7-2.1c0.7-0.6,1.4-1.2,2.2-1.6c1-0.6,1.8-0.9,2.5-0.9c0.7,0,1.3,0.2,1.9,0.6c0.5,0.4,1.2,1.3,2.1,2.8
	l5.5,9.5l2.3-1.3l1.2,2.1l-2.3,1.3l2.1,3.7l-1.6,3.5L296.9,160z M280.5,157.1c-0.8-0.7-1.4-1.2-1.8-1.6c-0.4-0.4-0.9-0.9-1.5-1.5
	l-0.1,0c0.3,1,0.5,1.8,0.6,2.2c0.1,0.5,0.3,1.4,0.5,2.9l1.9,10.7l-2.8,1.6l-3.5-21.1c-0.3-1.7-0.4-3.1-0.4-4.1
	c0-1.1,0.3-1.9,0.6-2.5c0.4-0.6,1-1.2,1.7-1.6c0.3-0.2,0.7-0.3,1.2-0.5c0.5-0.2,0.9-0.4,1.3-0.5l0.8,2.6c-0.5,0.1-1,0.2-1.4,0.5
	c-0.6,0.3-1,0.8-1.2,1.3c-0.2,0.5-0.3,1.1-0.2,1.7c0,0.6,0.1,1.3,0.2,1.9c0.1,0.7,0.2,1,0.2,1.2l15.5,12.6l-3,1.7L280.5,157.1z"/>
<path class="st3" d="M919.1,843.2c-2.3-1.3-4.1-3-5.3-4.9s-1.8-4-1.9-6.2c0-2.2,0.6-4.3,1.7-6.3c1.2-2,2.7-3.6,4.6-4.6
	c1.9-1.1,4-1.6,6.2-1.5c2.3,0.1,4.6,0.8,6.9,2.1c2.3,1.3,4.1,3,5.3,4.9c1.2,1.9,1.8,4,1.9,6.1c0,2.2-0.6,4.3-1.7,6.3
	c-1.2,2-2.7,3.6-4.6,4.7c-1.9,1.1-4,1.6-6.3,1.5C923.6,845.2,921.3,844.5,919.1,843.2z M916.2,827.3c-0.9,1.5-1.3,3-1.2,4.6
	c0.1,1.6,0.6,3.1,1.6,4.5c1,1.4,2.4,2.7,4.3,3.8c1.8,1.1,3.6,1.7,5.3,1.8c1.7,0.1,3.3-0.2,4.6-0.9c1.4-0.7,2.5-1.9,3.3-3.3
	c0.8-1.5,1.3-3,1.2-4.6c0-1.6-0.5-3.1-1.5-4.5c-1-1.4-2.4-2.7-4.2-3.7c-1.9-1.1-3.7-1.7-5.4-1.8c-1.7-0.2-3.3,0.1-4.7,0.9
	C918.2,824.7,917.1,825.8,916.2,827.3z M931.8,813.7L931.8,813.7c-0.7-2.2-0.5-4.2,0.6-6.1c0.8-1.4,1.9-2.4,3.2-3.1
	c1.3-0.7,2.7-0.9,4.3-0.8c1.6,0.1,3.2,0.7,4.8,1.6c1.8,1,3.2,2.3,4.2,3.7c0.9,1.4,1.4,2.8,1.5,4.3c0,1.5-0.3,2.9-1.1,4.3
	c-0.6,1-1.3,1.8-2.2,2.4c-0.9,0.6-1.9,0.9-2.9,1l0,0.1l2,1.2l-1.5,2.6l-22.3-12.9l1.6-2.7L931.8,813.7z M934.6,809.1
	c-0.5,0.9-0.8,1.9-0.7,3c0.1,1,0.5,2,1.2,2.9c0.7,0.9,1.6,1.7,2.8,2.4c2.1,1.2,3.8,1.7,5.4,1.5c1.5-0.2,2.8-1,3.7-2.6
	c0.5-0.9,0.8-1.9,0.6-2.8c-0.1-1-0.5-1.9-1.2-2.8c-0.7-0.9-1.7-1.8-3-2.5c-1.3-0.7-2.5-1.2-3.6-1.4c-1.1-0.2-2.2-0.1-3,0.3
	C935.8,807.5,935.1,808.2,934.6,809.1z M956.5,804.1l-1.6,2.7L932.6,794l1.6-2.7L956.5,804.1z M960.9,792.1c0.6-1,0.8-2.1,0.6-3.2
	c-0.2-1.1-0.7-2.1-1.5-3l2-2.4c1.4,1.4,2.1,3,2.3,4.8c0.2,1.8-0.2,3.5-1.2,5.3c-0.9,1.5-2,2.7-3.3,3.4c-1.3,0.7-2.8,1.1-4.4,1
	c-1.6-0.1-3.3-0.6-4.9-1.6c-1.7-1-3.1-2.2-4-3.5c-0.9-1.4-1.4-2.8-1.5-4.3c0-1.6,0.4-3.1,1.3-4.6c0.9-1.5,1.9-2.6,3.2-3.3
	c1.3-0.7,2.8-1,4.4-0.9c1.6,0.1,3.4,0.7,5.2,1.8l0.6,0.3l-7,12.1c1.2,0.6,2.3,0.9,3.4,1c1.1,0.1,2-0.1,2.9-0.6
	C959.7,793.7,960.4,793,960.9,792.1z M948.4,785.1c-0.5,0.8-0.7,1.7-0.7,2.5c0,0.9,0.2,1.7,0.7,2.6c0.5,0.8,1.1,1.6,2,2.2l5.2-9.1
	c-1.6-0.7-3-0.9-4.2-0.6C950.1,783,949.1,783.8,948.4,785.1z M958.4,767.8c-0.9,1.6-1.1,3.1-0.5,4.6c0.6,1.5,1.9,2.8,3.8,3.9
	c1.2,0.7,2.4,1.1,3.6,1.3c1.2,0.2,2.2,0,3.2-0.4c1-0.4,1.7-1.1,2.3-2.1c0.7-1.2,0.9-2.3,0.6-3.5c-0.3-1.2-1-2.2-2.2-3.1l2-2.5
	c1.1,0.9,1.9,1.9,2.4,3.1c0.5,1.2,0.7,2.4,0.6,3.7c-0.1,1.3-0.5,2.5-1.2,3.7c-0.9,1.5-2,2.6-3.3,3.4c-1.3,0.7-2.8,1.1-4.5,1
	c-1.6-0.1-3.3-0.7-5-1.7c-1.8-1-3.2-2.2-4.1-3.6c-0.9-1.4-1.3-2.8-1.3-4.3c0-1.5,0.5-3.1,1.4-4.6c0.7-1.1,1.5-2.1,2.4-2.8
	c0.9-0.7,2-1.2,3.1-1.3c1.1-0.2,2.3-0.1,3.4,0.4l-1.1,2.9c-1.2-0.3-2.2-0.3-3.2,0S959,766.8,958.4,767.8z M952.3,764.9l-1.5-3.3
	l1.7-3l2.4,5.8l-1.7,2.9l-6.3,1l1.7-3L952.3,764.9z M980.2,758.6c0.6-1,0.8-2.1,0.6-3.2c-0.2-1.1-0.7-2.1-1.5-3l1.9-2.4
	c1.4,1.4,2.2,3,2.3,4.8c0.2,1.8-0.2,3.5-1.2,5.3c-0.9,1.5-2,2.7-3.4,3.4c-1.3,0.7-2.8,1.1-4.4,1c-1.6-0.1-3.3-0.6-5-1.6
	c-1.7-1-3.1-2.2-4-3.5c-0.9-1.4-1.4-2.8-1.5-4.3c0-1.6,0.4-3.1,1.3-4.6c0.9-1.5,1.9-2.6,3.2-3.3c1.3-0.7,2.8-1,4.4-0.9
	c1.6,0.1,3.4,0.7,5.2,1.8l0.6,0.3l-7,12.1c1.2,0.6,2.3,0.9,3.4,1c1.1,0.1,2-0.1,2.9-0.6C979,760.3,979.7,759.6,980.2,758.6z
	 M967.7,751.7c-0.5,0.8-0.7,1.7-0.7,2.5c0,0.9,0.2,1.7,0.7,2.6c0.5,0.8,1.1,1.6,2,2.2l5.2-9.1c-1.6-0.7-3-0.9-4.2-0.6
	C969.4,749.6,968.4,750.4,967.7,751.7z M994.1,738.9l-10.6-6.1c-1.2-0.7-2.2-0.9-3.2-0.7c-0.9,0.2-1.7,0.9-2.3,2
	c-0.8,1.4-1,2.7-0.6,3.9c0.4,1.2,1.5,2.4,3.3,3.4l9,5.2l-1.6,2.7l-16.2-9.3l1.5-2.6l2.3,1.3c-0.5-1-0.7-2.1-0.7-3.2
	c0-1.1,0.3-2.2,1-3.3c1.1-1.9,2.4-3,3.9-3.4c1.5-0.4,3.2-0.1,5,1l10.9,6.3L994.1,738.9z M999.7,729.3l-1.6,2.7l-16.2-9.3l1.6-2.7
	L999.7,729.3z M980.6,719.8l-1.3,2.3l-3.1-4.5l2.1-3.6L980.6,719.8z"/>
<path class="st3" d="M170.1,278.6c-1.5-0.9-2.5-1.9-3.2-3.2c-0.7-1.2-0.9-2.6-0.7-4.2c0.2-1.5,0.8-3.2,1.7-4.9l2.7-4.7l-8.9-5.1
	l1.7-3l22.3,12.9l-4.5,7.7c-1.5,2.6-3.2,4.3-5.2,5.1C174.2,280.1,172.2,279.8,170.1,278.6z M171.8,275.5c1.4,0.8,2.6,1,3.7,0.5
	c1.1-0.5,2.2-1.6,3.2-3.3l2.7-4.7l-8.2-4.7l-2.7,4.7c-1,1.7-1.4,3.2-1.2,4.4C169.6,273.7,170.4,274.7,171.8,275.5z M145.3,285.1
	l1.7-2.9c0.4,0,0.8,0.1,1,0.1c0.2,0.1,0.7,0.2,1.3,0.4c-0.4-1.3-0.5-2.4-0.4-3.5c0.1-1.1,0.5-2.2,1.2-3.3c0.6-1,1.3-1.8,2.1-2.4
	c0.8-0.5,1.7-0.8,2.7-0.8c1,0,1.9,0.3,2.8,0.8c1.4,0.8,2.2,1.9,2.5,3.3c0.3,1.4,0,3.2-0.9,5.4c-0.9,2.3-1.5,4.1-1.7,5.1l0.4,0.2
	c0.9,0.5,1.7,0.8,2.3,0.9c0.7,0.1,1.3-0.1,1.8-0.5c0.5-0.4,1-1,1.5-1.9c0.6-1.1,0.9-2.1,0.8-3c-0.1-0.9-0.7-1.8-1.6-2.6l2-2.4
	c1.4,1.3,2.3,2.7,2.4,4.3c0.2,1.6-0.3,3.4-1.4,5.2c-0.8,1.4-1.7,2.5-2.6,3.2c-0.9,0.7-1.8,1-2.9,1c-1.1,0-2.3-0.4-3.7-1.2l-5.8-3.3
	c-1-0.6-1.8-1-2.4-1.3c-0.6-0.3-1.1-0.5-1.6-0.6C146.5,285.2,146,285.1,145.3,285.1z M157,281c0.4-1.2,0.6-2.2,0.4-2.9
	c-0.2-0.8-0.6-1.3-1.3-1.8c-0.8-0.5-1.5-0.6-2.3-0.3c-0.7,0.3-1.4,0.9-1.9,1.8c-0.5,0.8-0.7,1.8-0.7,2.9c0,0.8,0.1,1.5,0.4,2
	c0.2,0.6,0.6,1.1,1.1,1.5c0.5,0.5,1.2,1,2.2,1.5l0.6,0.3c0-0.3,0.2-1,0.5-1.9C156.2,283.2,156.6,282.2,157,281z M157.9,300.6
	l-1.8,3.1l-2.1-1.2l1.8-3.1l-9.8-5.7c-0.6-0.3-1.1-0.6-1.4-0.6c-0.4-0.1-0.6,0-0.9,0.1c-0.2,0.2-0.4,0.4-0.6,0.8
	c-0.2,0.4-0.4,0.9-0.7,1.7l-2.5-1c0.3-0.9,0.6-1.7,1.1-2.5c0.6-1,1.1-1.7,1.7-2c0.6-0.4,1.3-0.5,2-0.4c0.7,0.1,1.7,0.5,3.2,1.4
	l9.5,5.5l1.3-2.3l2.1,1.2l-1.3,2.3l3.7,2.1l0.4,3.9L157.9,300.6z M152.3,310.3l-1.8,3.1l-2.1-1.2l1.8-3.1l-9.8-5.7
	c-0.6-0.3-1.1-0.6-1.4-0.6c-0.4-0.1-0.6,0-0.9,0.1c-0.2,0.2-0.4,0.4-0.6,0.8c-0.2,0.4-0.4,0.9-0.7,1.7l-2.5-1
	c0.3-0.9,0.6-1.7,1.1-2.5c0.6-1,1.1-1.7,1.7-2c0.6-0.4,1.3-0.5,2-0.4c0.7,0.1,1.7,0.5,3.2,1.4l9.5,5.5l1.3-2.3l2.1,1.2l-1.3,2.3
	l3.7,2.1l0.4,3.9L152.3,310.3z M130.8,314.5c-0.6,1-0.8,2.1-0.6,3.2c0.2,1.1,0.7,2.1,1.5,3l-2,2.4c-1.4-1.4-2.1-3-2.3-4.8
	c-0.2-1.8,0.2-3.5,1.2-5.3c0.9-1.5,2-2.7,3.3-3.4c1.3-0.7,2.8-1.1,4.4-1c1.6,0.1,3.3,0.6,5,1.6c1.7,1,3.1,2.2,4,3.5
	c0.9,1.4,1.4,2.8,1.5,4.3c0,1.6-0.4,3.1-1.3,4.6c-0.9,1.5-1.9,2.6-3.3,3.3c-1.3,0.7-2.8,1-4.4,0.9c-1.6-0.1-3.4-0.7-5.2-1.8
	l-0.6-0.3l7-12.1c-1.2-0.6-2.3-0.9-3.4-1c-1.1-0.1-2,0.1-2.9,0.6C132.1,312.8,131.4,313.5,130.8,314.5z M143.4,321.4
	c0.5-0.8,0.7-1.7,0.7-2.5c0-0.9-0.2-1.7-0.7-2.6c-0.5-0.8-1.1-1.6-2-2.2l-5.3,9.1c1.6,0.7,3,0.9,4.3,0.6
	C141.6,323.5,142.6,322.7,143.4,321.4z M133.1,338c0.7-1.2,0.7-2.3,0.2-3.5c-0.5-1.1-1.6-2.1-3.2-3.1l-8.6-5l1.6-2.7l16.2,9.3
	l-1.5,2.6l-2.4-1.4c0.7,1.2,1,2.2,1.1,3.1c0.1,0.9-0.1,1.7-0.7,2.6c-0.3,0.5-0.6,0.9-1,1.2c-0.4,0.4-0.8,0.7-1.3,1l-2-2.4
	C132.1,339.3,132.6,338.7,133.1,338z M110.5,345.4l10.6,6.1c1.2,0.7,2.2,0.9,3.2,0.7c0.9-0.2,1.7-0.9,2.4-2c0.8-1.4,1-2.7,0.6-3.9
	c-0.4-1.2-1.5-2.4-3.3-3.4l-9-5.2l1.6-2.7l16.2,9.3l-1.5,2.6l-2.3-1.3c0.5,1,0.7,2.1,0.7,3.2c0,1.1-0.3,2.2-1,3.3
	c-1.1,1.9-2.4,3-3.9,3.4c-1.5,0.4-3.2,0.1-5-1l-10.9-6.3L110.5,345.4z M110.6,361c-1.1-0.2-1.8-0.4-2.4-0.5
	c-0.5-0.1-1.2-0.3-2.1-0.5l0,0.1c0.8,0.7,1.3,1.3,1.6,1.6c0.3,0.3,0.9,1.1,1.9,2.2l6.9,8.3l-1.6,2.8l-13.6-16.6
	c-1.1-1.3-1.9-2.5-2.4-3.4c-0.5-0.9-0.7-1.8-0.7-2.5c0-0.7,0.2-1.5,0.7-2.3c0.2-0.3,0.4-0.6,0.7-1c0.3-0.4,0.6-0.8,0.9-1.1l2,1.9
	c-0.4,0.3-0.7,0.7-1,1.1c-0.3,0.6-0.5,1.2-0.4,1.7c0.1,0.6,0.3,1.1,0.7,1.6c0.3,0.5,0.7,1,1.2,1.6c0.4,0.5,0.7,0.8,0.8,0.9l19.7,3.2
	l-1.7,3L110.6,361z"/>
<path class="st3" d="M1026.5,581.3v-12.7h3.1v16.1h-25.8v-3.4H1026.5z M1020.3,566.7c-2,0-3.8-0.4-5.2-1.1c-1.5-0.7-2.6-1.7-3.4-3.1
	c-0.8-1.3-1.2-2.9-1.2-4.6c0-1.7,0.4-3.3,1.1-4.6c0.8-1.3,1.9-2.3,3.3-3.1c1.4-0.7,3.2-1.1,5.3-1.1c2,0,3.8,0.4,5.3,1.1
	c1.5,0.7,2.6,1.8,3.4,3.1c0.8,1.3,1.1,2.8,1.1,4.6c0,1.7-0.4,3.2-1.1,4.5c-0.8,1.3-1.9,2.3-3.3,3.1
	C1024.1,566.3,1022.4,566.7,1020.3,566.7z M1013.1,557.9c0,1.1,0.3,2,0.8,2.8c0.5,0.8,1.3,1.5,2.4,2c1.1,0.5,2.4,0.7,3.9,0.7
	c1.5,0,2.8-0.2,3.9-0.7c1.1-0.5,1.9-1.1,2.4-1.9c0.5-0.8,0.8-1.8,0.8-2.9c0-1.1-0.3-2.1-0.8-2.9c-0.6-0.8-1.4-1.5-2.5-1.9
	c-1.1-0.5-2.4-0.7-3.9-0.7c-1.5,0-2.8,0.2-3.9,0.7c-1.1,0.5-1.9,1.1-2.4,2C1013.4,555.9,1013.1,556.9,1013.1,557.9z M1010.9,532.9
	v-3h17.1c3,0,5.3,0.7,6.8,2c1.5,1.3,2.3,3.5,2.3,6.4c0,2.3-0.5,4.1-1.6,5.3c-1,1.3-2.5,1.9-4.4,2.1l0.5-3.1c1-0.2,1.8-0.6,2.2-1.3
	c0.5-0.7,0.7-1.7,0.7-3c0-1.8-0.4-3.1-1.4-4c-0.9-0.9-2.8-1.3-5.6-1.3h-0.4c1.6,1.4,2.4,3.1,2.4,5.3c0,1.6-0.4,3-1.2,4.3
	c-0.8,1.2-1.9,2.2-3.4,2.9c-1.4,0.7-3.1,1-4.9,1c-1.9,0-3.6-0.3-5-0.9c-1.5-0.6-2.6-1.5-3.4-2.7c-0.8-1.2-1.2-2.6-1.2-4.3
	c0-1.3,0.2-2.4,0.7-3.3c0.4-0.9,1.1-1.7,2-2.4v-0.1H1010.9z M1013.1,538.4c0,1,0.3,1.8,0.8,2.6c0.5,0.8,1.3,1.3,2.3,1.8
	c1,0.4,2.3,0.6,3.7,0.6c1.5,0,2.7-0.2,3.8-0.6c1-0.4,1.9-1,2.4-1.8c0.6-0.8,0.9-1.7,0.9-2.8c0-1.1-0.3-2-0.9-2.8
	c-0.6-0.8-1.4-1.4-2.4-1.8c-1.1-0.4-2.3-0.6-3.7-0.6c-1.4,0-2.6,0.2-3.7,0.7c-1.1,0.4-1.8,1.1-2.4,1.9
	C1013.4,536.3,1013.1,537.3,1013.1,538.4z M1029.6,510v3.3c-0.4,0.2-0.7,0.3-1,0.4c-0.2,0.1-0.7,0.2-1.3,0.3c1,0.9,1.7,1.9,2.1,2.9
	c0.4,1,0.6,2.2,0.6,3.5c0,1.2-0.2,2.2-0.7,3.1c-0.5,0.9-1.1,1.6-1.9,2.1c-0.8,0.5-1.8,0.7-2.8,0.7c-1.6,0-2.9-0.5-3.8-1.6
	c-0.9-1-1.6-2.8-2-5.2c-0.4-2.5-0.7-4.3-1.1-5.3h-0.5c-1,0-1.9,0.1-2.5,0.4c-0.6,0.3-1,0.7-1.3,1.3c-0.3,0.6-0.4,1.4-0.4,2.4
	c0,1.3,0.3,2.3,0.9,3c0.6,0.7,1.5,1.2,2.7,1.4l-0.5,3.1c-1.9-0.4-3.3-1.2-4.3-2.5c-0.9-1.3-1.4-3-1.4-5.2c0-1.7,0.2-3,0.6-4
	c0.4-1,1.1-1.8,2-2.3c0.9-0.5,2.2-0.8,3.8-0.8h6.7c1.2,0,2.1,0,2.7-0.1c0.6-0.1,1.2-0.2,1.6-0.3C1028.5,510.6,1029,510.3,1029.6,510
	z M1021.5,519.4c0.2,1.3,0.6,2.2,1.1,2.8c0.5,0.6,1.2,0.9,2,0.9c0.9,0,1.6-0.3,2.1-0.9c0.5-0.6,0.8-1.4,0.8-2.5
	c0-0.9-0.3-1.9-0.9-2.9c-0.4-0.7-0.9-1.2-1.3-1.6c-0.5-0.4-1.1-0.6-1.7-0.8c-0.7-0.2-1.6-0.2-2.7-0.2h-0.7c0.1,0.3,0.3,0.9,0.5,1.9
	C1021,517.1,1021.3,518.2,1021.5,519.4z"/>
<path class="st3" d="M74.9,508.9c-0.6,0.2-1.3,0.4-2,0.6c-0.8,0.2-1.5,0.4-2.2,0.5v0.1c1.4,0.3,2.7,0.7,3.9,1.1l18.7,6.7v3.6
	l-25.8-9.7v-3.5l25.8-9.6v3.7L74.9,508.9z M89.8,526.3v-3.2h3.6v3.2H89.8z M67.6,526.3v-3.2h18.6v3.2H67.6z M84.2,543.9l-13.9-10.7
	v11.1h-2.7v-15.2h2.5l13.5,10.4v-9.8h2.6v14.2H84.2z M89.8,550.6v-3.2h3.6v3.2H89.8z M67.6,550.6v-3.2h18.6v3.2H67.6z M86.2,559.2
	v3.5h-2.4v-3.5H72.5c-0.7,0-1.2,0.1-1.5,0.2c-0.3,0.1-0.6,0.3-0.7,0.6c-0.1,0.2-0.2,0.6-0.2,1c0,0.4,0.1,1,0.2,1.8l-2.6,0.4
	c-0.2-0.9-0.3-1.8-0.3-2.7c0-1.1,0.2-2,0.5-2.6c0.3-0.6,0.8-1.1,1.5-1.4c0.6-0.3,1.8-0.4,3.4-0.4h11v-2.7h2.4v2.7h4.3l2.3,3.2H86.2z
	 M78.7,569.2l7.6,7.5v4.1l-6.7-6.9l-11.9,7.7v-3.8l9.7-6.1l-2.3-2.4h-7.4V566h25.8v3.2H78.7z M75.5,589.4c-1,0.4-1.8,0.6-2.3,0.8
	c-0.5,0.2-1.2,0.4-2.1,0.6v0.1c1,0.2,1.8,0.4,2.2,0.5c0.4,0.1,1.4,0.5,2.7,1l10.2,3.7v3.2l-20-7.6c-1.6-0.6-2.9-1.2-3.7-1.8
	c-0.9-0.6-1.5-1.2-1.9-1.8c-0.4-0.6-0.5-1.4-0.5-2.3c0-0.3,0-0.8,0.1-1.3c0.1-0.5,0.1-1,0.2-1.4l2.7,0.7c-0.2,0.5-0.3,1-0.3,1.4
	c0,0.7,0.2,1.2,0.5,1.7c0.3,0.4,0.8,0.8,1.4,1.1c0.6,0.3,1.2,0.5,1.8,0.8s1,0.4,1.1,0.4l18.7-7.1v3.4L75.5,589.4z"/>
<path class="st3" d="M977.5,367.9c1-0.6,2.1-0.9,3.3-0.8c1.1,0.1,2.2,0.4,3.2,1.2c-0.4-1.5-0.4-2.9,0.1-4.2c0.5-1.3,1.5-2.3,2.8-3.1
	c1.4-0.8,2.7-1.1,4-1.1c1.3,0.1,2.6,0.5,3.8,1.4c1.2,0.9,2.2,2.1,3.2,3.8l5,8.7l-22.3,12.9l-4.8-8.2c-0.9-1.6-1.5-3.1-1.6-4.4
	c-0.2-1.4,0-2.6,0.6-3.6C975.5,369.3,976.3,368.5,977.5,367.9z M979.3,370.8c-1,0.6-1.5,1.4-1.6,2.5c-0.1,1.1,0.3,2.5,1.3,4.2
	l2.7,4.6l6.7-3.9l-2.9-5c-0.9-1.5-1.8-2.5-2.8-2.9C981.7,369.9,980.6,370,979.3,370.8z M988.8,364c-1.3,0.8-2.1,1.8-2.1,3.1
	c-0.1,1.3,0.4,2.8,1.5,4.7l2.9,5l7.7-4.4l-3.1-5.4c-1-1.8-2.1-2.9-3.2-3.4C991.2,363.1,990,363.2,988.8,364z M970.6,362l1.6,2.7
	l-3.1,1.8l-1.6-2.7L970.6,362z M989.8,350.9l1.6,2.7l-16.2,9.3l-1.6-2.7L989.8,350.9z M985.8,343.9l1.6,2.7l-22.3,12.9l-1.6-2.7
	L985.8,343.9z M981.8,336.9l1.6,2.7l-22.3,12.9l-1.6-2.7L981.8,336.9z M963.4,338.2L963.4,338.2c-2.2-0.5-3.8-1.7-5-3.6
	c-0.8-1.4-1.2-2.8-1.1-4.3c0.1-1.5,0.6-2.8,1.5-4.1c0.9-1.3,2.2-2.4,3.8-3.3c1.8-1,3.6-1.6,5.2-1.8c1.7-0.1,3.2,0.1,4.5,0.8
	c1.3,0.7,2.4,1.7,3.2,3.1c0.6,1,0.9,2.1,1,3.1c0.1,1.1-0.2,2.1-0.6,3l0,0.1l2-1.2l1.5,2.6L957,345.6l-1.6-2.7L963.4,338.2z
	 M960.8,333.6c0.6,0.9,1.3,1.6,2.2,2.1c0.9,0.4,2,0.6,3.1,0.5c1.1-0.1,2.3-0.5,3.5-1.2c2.1-1.2,3.4-2.5,4-3.9
	c0.6-1.4,0.5-2.9-0.4-4.5c-0.5-0.9-1.2-1.6-2.1-2c-0.9-0.4-1.9-0.5-3.1-0.4c-1.2,0.2-2.4,0.6-3.7,1.4c-1.3,0.7-2.3,1.5-3,2.4
	c-0.7,0.9-1.2,1.8-1.3,2.8S960.3,332.7,960.8,333.6z M961.6,320.5c-1.8,1-3.4,1.6-5.1,1.7c-1.6,0.1-3.1-0.2-4.4-1
	c-1.3-0.8-2.4-1.9-3.3-3.4c-0.9-1.5-1.3-3-1.3-4.5c0-1.5,0.4-2.9,1.3-4.3c0.9-1.4,2.2-2.6,4-3.6c1.8-1,3.5-1.6,5.1-1.7
	c1.6-0.1,3.1,0.2,4.5,1c1.3,0.8,2.4,1.9,3.3,3.4c0.9,1.5,1.3,3,1.3,4.5c0,1.5-0.4,3-1.3,4.3C964.7,318.3,963.4,319.5,961.6,320.5z
	 M951,316.6c0.5,0.9,1.2,1.6,2.1,2c0.9,0.4,1.9,0.6,3.1,0.5c1.2-0.1,2.4-0.6,3.7-1.3c1.3-0.8,2.3-1.6,3-2.6c0.7-0.9,1.1-1.9,1.1-2.9
	c0-1-0.2-2-0.7-2.9c-0.6-1-1.3-1.7-2.2-2.1c-0.9-0.4-1.9-0.6-3.1-0.4c-1.2,0.1-2.4,0.6-3.7,1.3c-1.3,0.8-2.3,1.6-3,2.6
	c-0.7,0.9-1.1,1.9-1.1,2.9C950.2,314.6,950.5,315.6,951,316.6z M951.5,284.5l1.7,2.9c-0.2,0.4-0.5,0.6-0.6,0.8
	c-0.2,0.2-0.5,0.5-1,0.9c1.3,0.3,2.4,0.8,3.2,1.4c0.9,0.7,1.6,1.5,2.3,2.7c0.6,1,0.9,2,1,3c0.1,1-0.1,1.9-0.6,2.7
	c-0.5,0.8-1.2,1.5-2.1,2c-1.4,0.8-2.8,1-4.1,0.6c-1.3-0.4-2.8-1.6-4.3-3.5c-1.6-2-2.8-3.3-3.6-4.1l-0.4,0.2c-0.9,0.5-1.6,1-1.9,1.6
	c-0.4,0.5-0.6,1.1-0.5,1.8c0.1,0.6,0.3,1.4,0.8,2.3c0.6,1.1,1.4,1.8,2.2,2.2c0.9,0.3,1.9,0.3,3.1-0.1l1.1,2.9
	c-1.8,0.6-3.5,0.6-4.9,0c-1.5-0.7-2.8-1.9-3.8-3.8c-0.8-1.4-1.3-2.7-1.5-3.8c-0.2-1.1,0.1-2.1,0.6-3c0.6-0.9,1.5-1.8,2.9-2.6
	l5.8-3.3c1-0.6,1.8-1,2.3-1.4c0.5-0.4,0.9-0.7,1.3-1.1C950.8,285.5,951.2,285.1,951.5,284.5z M949.2,296.6c0.8,1,1.6,1.6,2.3,1.8
	c0.7,0.2,1.5,0.1,2.2-0.3c0.8-0.5,1.2-1.1,1.4-1.8c0.1-0.8-0.1-1.6-0.6-2.6c-0.5-0.8-1.2-1.5-2.2-2c-0.7-0.4-1.3-0.6-1.9-0.7
	c-0.6-0.1-1.2,0-1.9,0.2c-0.7,0.2-1.5,0.6-2.4,1.1l-0.6,0.3c0.3,0.2,0.7,0.6,1.4,1.4C947.7,294.9,948.4,295.7,949.2,296.6z
	 M932.2,282.8c0.7,1.2,1.6,1.8,2.9,1.9c1.2,0.1,2.7-0.3,4.3-1.2l8.6-5l1.6,2.7l-16.2,9.3l-1.5-2.6l2.4-1.4c-1.4,0-2.4-0.2-3.2-0.6
	c-0.8-0.4-1.4-1-1.9-1.9c-0.3-0.5-0.5-1-0.6-1.5c-0.1-0.5-0.2-1-0.2-1.6l3.1-0.5C931.6,281.3,931.8,282,932.2,282.8z M935.4,256.6
	l1.5,2.6l-2,1.2l0,0.1c1,0.1,2,0.4,3,1c0.9,0.6,1.7,1.4,2.2,2.4c0.8,1.4,1.2,2.9,1.1,4.4c-0.1,1.5-0.6,2.9-1.5,4.3
	c-0.9,1.3-2.2,2.5-3.9,3.5c-1.7,1-3.4,1.6-5,1.7c-1.6,0.2-3-0.1-4.3-0.7c-1.3-0.7-2.3-1.7-3.2-3.1c-0.6-1-0.9-2.1-1-3.1
	c-0.1-1,0.1-2,0.4-3.1l0-0.1l-8,4.6l-1.6-2.7L935.4,256.6z M925.4,272.3c0.5,0.9,1.2,1.6,2.1,2c0.9,0.4,1.9,0.5,3.1,0.3
	c1.1-0.2,2.3-0.7,3.6-1.4c1.3-0.8,2.3-1.6,3.1-2.5c0.7-0.9,1.1-1.9,1.2-2.8c0.1-1-0.2-1.9-0.7-2.8c-0.6-1-1.3-1.7-2.2-2.1
	s-1.9-0.6-3-0.4c-1.1,0.2-2.3,0.6-3.5,1.3c-1.3,0.8-2.4,1.6-3.1,2.6c-0.7,1-1.2,1.9-1.2,3C924.6,270.3,924.9,271.3,925.4,272.3z
	 M923.6,251.9c0.7-0.8,1.2-1.4,1.6-1.8c0.4-0.4,0.9-0.9,1.5-1.5l0-0.1c-1,0.3-1.8,0.5-2.2,0.6c-0.5,0.1-1.4,0.3-2.9,0.5l-10.7,1.9
	l-1.6-2.8l21.1-3.5c1.7-0.3,3.1-0.4,4.1-0.3c1.1,0,1.9,0.3,2.5,0.6c0.6,0.4,1.2,0.9,1.6,1.7c0.2,0.3,0.3,0.7,0.5,1.2
	c0.2,0.5,0.4,0.9,0.5,1.3l-2.6,0.8c-0.1-0.5-0.2-1-0.5-1.4c-0.3-0.6-0.8-1-1.3-1.2c-0.5-0.2-1.1-0.3-1.7-0.2c-0.6,0-1.3,0.1-1.9,0.2
	c-0.7,0.1-1.1,0.2-1.2,0.2l-12.6,15.5l-1.7-3L923.6,251.9z"/>
<path class="st3" d="M113,729.3l16.4,3.7l2.2,3.8l-13.8-3.4l-8.3,16.7l-2-3.5l7.2-14l-5.1-1.3l-8.1,4.7l-1.7-3l22.3-12.9l1.7,3
	L113,729.3z M118,764.8l-1.7-2.9c0.3-0.4,0.5-0.6,0.6-0.8c0.2-0.2,0.5-0.5,1-0.9c-1.3-0.3-2.4-0.8-3.2-1.4c-0.9-0.7-1.6-1.5-2.3-2.7
	c-0.6-1-0.9-2-1-3c0-1,0.2-1.9,0.6-2.7c0.5-0.8,1.2-1.5,2.1-2c1.4-0.8,2.8-1,4.1-0.6c1.3,0.4,2.8,1.6,4.3,3.5c1.6,2,2.8,3.3,3.6,4.1
	l0.4-0.2c0.9-0.5,1.5-1,1.9-1.6c0.4-0.5,0.6-1.1,0.5-1.8c-0.1-0.6-0.3-1.4-0.8-2.3c-0.6-1.1-1.4-1.8-2.2-2.2
	c-0.9-0.3-1.9-0.3-3.1,0.1l-1.1-2.9c1.8-0.6,3.5-0.6,4.9,0c1.5,0.7,2.8,1.9,3.8,3.8c0.8,1.4,1.3,2.7,1.5,3.8c0.2,1.1,0,2.1-0.6,3
	c-0.6,0.9-1.5,1.8-2.9,2.6l-5.8,3.3c-1,0.6-1.8,1-2.3,1.4c-0.5,0.4-0.9,0.7-1.3,1.1C118.7,763.8,118.4,764.2,118,764.8z
	 M120.3,752.7c-0.8-1-1.6-1.6-2.3-1.8c-0.7-0.2-1.5-0.1-2.2,0.3c-0.8,0.5-1.3,1.1-1.4,1.8c-0.1,0.8,0.1,1.6,0.6,2.6
	c0.5,0.8,1.2,1.5,2.2,2c0.7,0.4,1.3,0.6,1.9,0.7c0.6,0.1,1.2,0,1.9-0.2c0.7-0.2,1.5-0.6,2.4-1.1l0.6-0.3c-0.3-0.2-0.7-0.6-1.4-1.4
	C121.9,754.4,121.1,753.6,120.3,752.7z M137.7,761.7l1.8,3.1l-2.1,1.2l-1.8-3.1l-9.8,5.7c-0.6,0.3-1,0.7-1.3,0.9
	c-0.2,0.3-0.3,0.6-0.3,0.8c0,0.3,0.2,0.6,0.4,1c0.2,0.4,0.6,0.8,1.1,1.4l-2.1,1.7c-0.6-0.7-1.2-1.4-1.6-2.2c-0.6-1-0.9-1.8-0.9-2.5
	c0-0.7,0.2-1.3,0.6-1.9c0.4-0.5,1.3-1.2,2.8-2.1l9.5-5.5l-1.3-2.3l2.1-1.2l1.3,2.3l3.7-2.1l3.5,1.6L137.7,761.7z M132.5,789.9
	l-1.7-2.9c0.3-0.4,0.5-0.6,0.6-0.8c0.2-0.2,0.5-0.5,1-0.9c-1.3-0.3-2.4-0.8-3.2-1.4c-0.9-0.7-1.6-1.5-2.3-2.7c-0.6-1-0.9-2-1-3
	c0-1,0.2-1.9,0.6-2.7c0.5-0.8,1.2-1.5,2.1-2c1.4-0.8,2.8-1,4.1-0.6c1.3,0.4,2.8,1.6,4.3,3.5c1.6,2,2.8,3.3,3.6,4.1l0.4-0.2
	c0.9-0.5,1.5-1,1.9-1.6c0.4-0.5,0.6-1.1,0.5-1.8c-0.1-0.6-0.3-1.4-0.8-2.3c-0.6-1.1-1.4-1.8-2.2-2.2c-0.9-0.3-1.9-0.3-3.1,0.1
	l-1.1-2.9c1.8-0.6,3.5-0.6,4.9,0c1.5,0.7,2.8,1.9,3.8,3.8c0.8,1.4,1.3,2.7,1.5,3.8c0.2,1.1,0,2.1-0.6,3c-0.6,0.9-1.5,1.8-2.9,2.6
	l-5.8,3.3c-1,0.6-1.8,1-2.3,1.4c-0.5,0.4-0.9,0.7-1.3,1.1C133.2,788.9,132.9,789.4,132.5,789.9z M134.9,777.8
	c-0.8-1-1.6-1.6-2.3-1.8c-0.7-0.2-1.5-0.1-2.2,0.3c-0.8,0.5-1.3,1.1-1.4,1.8c-0.1,0.8,0.1,1.6,0.6,2.6c0.5,0.8,1.2,1.5,2.2,2
	c0.7,0.4,1.3,0.6,1.9,0.7c0.6,0.1,1.2,0,1.9-0.2c0.7-0.2,1.5-0.6,2.4-1.1l0.6-0.3c-0.3-0.2-0.7-0.6-1.4-1.4
	C136.4,779.5,135.6,778.7,134.9,777.8z M136,796l-1.6-2.7l22.3-12.9l1.6,2.7L136,796z M145.9,794.5c1.8-1,3.4-1.6,5.1-1.7
	c1.6-0.1,3.1,0.2,4.4,1c1.3,0.8,2.4,1.9,3.3,3.4c0.9,1.5,1.3,3,1.3,4.5c0,1.5-0.4,2.9-1.3,4.3c-0.9,1.4-2.2,2.6-4,3.6
	c-1.8,1-3.5,1.6-5.1,1.7c-1.6,0.1-3.1-0.2-4.5-1c-1.3-0.8-2.4-1.9-3.3-3.4c-0.9-1.5-1.3-3-1.3-4.5c0-1.5,0.4-3,1.3-4.3
	C142.8,796.8,144.1,795.6,145.9,794.5z M156.5,798.5c-0.5-0.9-1.2-1.6-2.1-2c-0.9-0.4-1.9-0.6-3.1-0.5c-1.2,0.1-2.4,0.6-3.7,1.3
	c-1.3,0.8-2.3,1.6-3,2.6c-0.7,0.9-1.1,1.9-1.1,2.9c-0.1,1,0.2,2,0.7,2.9c0.6,1,1.3,1.7,2.2,2.1c0.9,0.4,1.9,0.6,3.1,0.4
	c1.2-0.1,2.4-0.6,3.7-1.3c1.3-0.8,2.3-1.6,3-2.6c0.7-0.9,1.1-1.9,1.1-2.9C157.3,800.4,157,799.5,156.5,798.5z M170.9,819.1l1.5,2.6
	l-14.8,8.5c-2.6,1.5-5,2.1-7,1.7c-2-0.4-3.7-1.9-5.2-4.4c-1.1-2-1.6-3.8-1.3-5.4c0.3-1.6,1.2-2.9,2.8-4l1.1,2.9
	c-0.8,0.6-1.2,1.4-1.3,2.2c-0.1,0.9,0.2,1.8,0.9,3c0.9,1.6,2,2.5,3.2,2.8c1.2,0.3,3.1-0.3,5.5-1.7l0.4-0.2c-2.1-0.4-3.7-1.5-4.8-3.4
	c-0.8-1.4-1.2-2.8-1.1-4.3c0.1-1.5,0.6-2.9,1.5-4.2c0.9-1.3,2.2-2.4,3.8-3.3c1.6-0.9,3.2-1.5,4.8-1.7c1.6-0.2,3,0,4.3,0.7
	c1.3,0.6,2.4,1.7,3.2,3.1c0.6,1.1,1,2.2,1.1,3.2c0.1,1-0.1,2-0.5,3.1l0,0.1L170.9,819.1z M166.3,815.4c-0.5-0.8-1.1-1.5-2-1.8
	c-0.8-0.4-1.8-0.5-2.9-0.4c-1.1,0.2-2.3,0.6-3.5,1.3c-1.3,0.7-2.3,1.5-3,2.4c-0.7,0.9-1.1,1.8-1.2,2.8s0.1,1.9,0.7,2.8
	c0.5,1,1.3,1.6,2.1,2c0.9,0.4,1.9,0.5,3,0.4c1.1-0.2,2.3-0.6,3.5-1.3c1.2-0.7,2.2-1.5,2.8-2.4c0.7-0.9,1.1-1.8,1.1-2.8
	C167.1,817.4,166.8,816.4,166.3,815.4z M168.1,835.7c-0.7,0.8-1.2,1.4-1.6,1.8c-0.4,0.4-0.9,0.9-1.5,1.5l0,0.1
	c1-0.3,1.8-0.5,2.2-0.6c0.5-0.1,1.4-0.3,2.9-0.5l10.7-1.9l1.6,2.8l-21.1,3.5c-1.7,0.3-3.1,0.4-4.1,0.3c-1.1,0-1.9-0.3-2.5-0.6
	c-0.6-0.4-1.2-1-1.6-1.7c-0.2-0.3-0.3-0.7-0.5-1.2c-0.2-0.5-0.4-0.9-0.5-1.3l2.6-0.8c0.1,0.5,0.2,1,0.5,1.4c0.3,0.6,0.8,1,1.3,1.2
	c0.5,0.2,1.1,0.3,1.7,0.2c0.6,0,1.3-0.1,1.9-0.2c0.7-0.1,1.1-0.2,1.2-0.2l12.6-15.5l1.7,3L168.1,835.7z"/>
<path class="st3" d="M800.3,156.1l-11-6.3l-5.3,9.2l-3-1.7l12.9-22.3l3,1.7l-6.1,10.5l11,6.3l6.1-10.5l3,1.7L798,166.9l-3-1.7
	L800.3,156.1z M775.2,142.3c1.2,0.7,2.3,0.7,3.5,0.2c1.1-0.5,2.1-1.6,3.1-3.2l5-8.6l2.7,1.6l-9.3,16.2l-2.6-1.5l1.4-2.4
	c-1.2,0.7-2.2,1-3.1,1.1c-0.9,0.1-1.7-0.1-2.6-0.7c-0.5-0.3-0.9-0.6-1.2-1c-0.4-0.4-0.7-0.8-1-1.3l2.4-2
	C773.9,141.3,774.5,141.9,775.2,142.3z M765.2,118.2l2.9,1.7c0,0.4-0.1,0.8-0.1,1c-0.1,0.2-0.2,0.7-0.4,1.3c1.3-0.4,2.4-0.5,3.5-0.4
	c1.1,0.1,2.2,0.5,3.3,1.2c1,0.6,1.8,1.3,2.4,2.1c0.5,0.8,0.8,1.7,0.8,2.7c0,1-0.3,1.9-0.8,2.8c-0.8,1.4-1.9,2.2-3.3,2.5
	c-1.4,0.3-3.2,0-5.4-0.9c-2.3-0.9-4-1.5-5.1-1.7l-0.2,0.4c-0.5,0.9-0.8,1.7-0.9,2.3c-0.1,0.7,0.1,1.3,0.5,1.8c0.4,0.5,1,1,1.9,1.5
	c1.1,0.6,2.1,0.9,3,0.8c0.9-0.1,1.8-0.7,2.6-1.6l2.4,2c-1.3,1.4-2.7,2.3-4.3,2.4c-1.6,0.2-3.4-0.3-5.2-1.4c-1.4-0.8-2.5-1.7-3.2-2.6
	c-0.7-0.9-1-1.8-1-2.9c0-1.1,0.4-2.3,1.2-3.7l3.3-5.8c0.6-1,1-1.8,1.3-2.4c0.3-0.6,0.5-1.1,0.6-1.6
	C765.1,119.5,765.1,118.9,765.2,118.2z M769.2,129.9c1.2,0.4,2.2,0.6,2.9,0.4c0.8-0.2,1.3-0.6,1.8-1.3c0.5-0.8,0.6-1.5,0.3-2.3
	c-0.3-0.7-0.9-1.4-1.8-1.9c-0.8-0.5-1.8-0.7-2.9-0.7c-0.8,0-1.5,0.1-2,0.4c-0.6,0.2-1.1,0.6-1.5,1.1c-0.5,0.5-1,1.2-1.5,2.2
	l-0.3,0.6c0.3,0,1,0.2,1.9,0.5C767,129.2,768.1,129.5,769.2,129.9z"/>
<path class="st3" d="M281.3,939.3c-0.5,1.7-1.1,3.3-1.7,4.7c0.4-0.4,0.8-1,1.4-1.7c0.6-0.6,1.2-1.2,1.7-1.8l12.5-12.6l3.5,2
	l-4.5,16.1c-0.5,1.8-1.1,3.6-1.8,5.4c0.5-0.7,1.8-2,3.7-4.1l11.4-12.2l3,1.7l-18.7,19l-3-1.7l5.6-20.1c0.2-0.9,0.4-1.5,0.6-2
	c-0.6,0.7-1.2,1.3-1.9,2l-14.3,14.4l-3-1.7l7.2-25.6l3,1.7L281.3,939.3z M307.1,962.1c1,0.6,2.1,0.8,3.2,0.6c1.1-0.2,2.1-0.7,3-1.5
	l2.4,2c-1.4,1.4-3,2.2-4.8,2.3c-1.8,0.2-3.5-0.2-5.3-1.2c-1.5-0.9-2.7-2-3.4-3.3c-0.7-1.3-1.1-2.8-1-4.4c0.1-1.6,0.6-3.3,1.6-5
	c1-1.7,2.2-3.1,3.5-4c1.4-0.9,2.8-1.4,4.3-1.5c1.6,0,3.1,0.4,4.6,1.3c1.5,0.9,2.6,1.9,3.3,3.3c0.7,1.3,1,2.8,0.9,4.4
	c-0.1,1.6-0.7,3.4-1.8,5.2l-0.3,0.6l-12.1-7c-0.6,1.2-0.9,2.3-1,3.4c-0.1,1.1,0.1,2,0.6,2.9C305.5,960.9,306.2,961.6,307.1,962.1z
	 M314.1,949.6c-0.8-0.5-1.7-0.7-2.5-0.7s-1.7,0.2-2.6,0.7c-0.8,0.5-1.6,1.1-2.2,2l9.1,5.3c0.7-1.6,0.9-3,0.6-4.3
	C316.2,951.3,315.4,950.3,314.1,949.6z M327.4,957.2L327.4,957.2c2.2-0.7,4.2-0.5,6.1,0.6c1.4,0.8,2.4,1.9,3.1,3.2
	c0.7,1.3,0.9,2.7,0.8,4.3c-0.1,1.6-0.7,3.2-1.6,4.8c-1,1.8-2.3,3.2-3.7,4.2c-1.4,0.9-2.8,1.4-4.3,1.5c-1.5,0-2.9-0.3-4.3-1.1
	c-1-0.6-1.8-1.3-2.4-2.2c-0.6-0.9-0.9-1.9-1-3l-0.1,0l-1.2,2l-2.6-1.5l12.9-22.3l2.7,1.6L327.4,957.2z M332,959.9
	c-0.9-0.5-1.9-0.8-3-0.7c-1,0.1-2,0.5-2.9,1.2c-0.9,0.7-1.7,1.6-2.4,2.8c-1.2,2.1-1.7,3.8-1.5,5.4c0.2,1.5,1,2.8,2.6,3.7
	c0.9,0.5,1.9,0.8,2.8,0.6c1-0.1,1.9-0.5,2.8-1.2c0.9-0.7,1.7-1.7,2.5-3c0.7-1.3,1.2-2.5,1.4-3.6c0.2-1.1,0.1-2.2-0.3-3
	C333.6,961.2,332.9,960.5,332,959.9z M342.2,975.7c-0.2,1-0.4,1.8-0.5,2.4c-0.1,0.5-0.3,1.2-0.5,2.1l0.1,0c0.7-0.8,1.3-1.3,1.6-1.7
	c0.3-0.3,1.1-0.9,2.2-1.9l8.3-6.9l2.8,1.6l-16.6,13.6c-1.3,1.1-2.5,1.9-3.4,2.4c-0.9,0.5-1.8,0.7-2.5,0.7c-0.7,0-1.5-0.2-2.3-0.7
	c-0.3-0.2-0.6-0.4-1.1-0.8c-0.4-0.3-0.8-0.6-1.1-0.9l1.9-2c0.3,0.4,0.7,0.7,1.1,1c0.6,0.3,1.2,0.5,1.7,0.4c0.6-0.1,1.1-0.3,1.6-0.7
	c0.5-0.3,1-0.7,1.6-1.1c0.5-0.4,0.8-0.7,0.9-0.8l3.2-19.7l3,1.7L342.2,975.7z"/>
</svg>
