<?xml version="1.0" encoding="utf-8"?>
<!-- Generator: Adobe Illustrator 28.1.0, SVG Export Plug-In . SVG Version: 6.00 Build 0)  -->
<svg version="1.1" id="Vrstva_1" xmlns="http://www.w3.org/2000/svg" xmlns:xlink="http://www.w3.org/1999/xlink" x="0px" y="0px"
	 viewBox="0 0 283.5 283.5" style="enable-background:new 0 0 283.5 283.5;" xml:space="preserve">
<g>
	<path d="M249.8,61.1h-81.5c-3.4,0-6.1,2.7-6.1,6.1v28.3h1.8c0.8,0,1.5,0.1,2.2,0.2V67.2c0-1.1,1-2.1,2.1-2.1h81.5
		c1.1,0,2.1,1,2.1,2.1v51.1l3.4,3.5l-2.9,2.8l-0.6-0.6v5.5c0,1.1-1,2-2.1,2h-51.4v4h51.4c3.3,0,6.1-2.7,6.1-6V67.2
		C255.9,63.8,253.2,61.1,249.8,61.1z"/>
	<path d="M231,98c-0.6,0-1.1,0.3-1.4,0.7l-9.2,10.4l-18.5-17.7c-0.7-0.7-1.9-0.7-2.7-0.1l-22.9,19.2c0.8,1.1,2,2,3.3,2.4l20.8-17.4
		l18.7,17.9c0.4,0.4,0.9,0.6,1.5,0.6c0.5,0,1.1-0.3,1.4-0.7l9.2-10.4l19.9,20.3l0.8,0.8l0.6,0.6l2.9-2.8l-3.4-3.5l-19.4-19.7
		C232.1,98.2,231.6,98,231,98z"/>
	<path d="M236.5,90.9c5.6,0,10.2-4.6,10.2-10.2c0-5.6-4.6-10.2-10.2-10.2s-10.2,4.6-10.2,10.2C226.3,86.3,230.9,90.9,236.5,90.9z
		 M236.5,74.5c3.4,0,6.2,2.8,6.2,6.2c0,3.4-2.8,6.2-6.2,6.2s-6.2-2.8-6.2-6.2C230.3,77.3,233.1,74.5,236.5,74.5z"/>
	<path d="M198.4,131.5v-7.3c0-0.3,0-0.7-0.1-1c-0.5-5.5-5.2-9.9-10.8-9.9h-5.8c-0.7,0-1.4-0.1-2.1-0.3c-1.3-0.4-2.5-1.3-3.3-2.4
		c-0.9-1.2-1.4-2.6-1.4-4.2c0-5.3-3.7-9.7-8.7-10.7c-0.7-0.1-1.4-0.2-2.2-0.2h-1.8h-43.1c-6,0-10.9,4.9-10.9,10.9
		c0,3.8-3.1,6.9-6.9,6.9h-3.8v4h3.8c6,0,10.9-4.9,10.9-10.9c0-3.8,3.1-6.9,6.9-6.9H164c3.8,0,6.9,3.1,6.9,6.9
		c0,6,4.8,10.9,10.8,10.9h5.8c3.8,0,6.9,3.1,6.9,6.9v13.2h2v4h-2v50.8h2v4h-2v15.5c0,3.8-3.1,6.9-6.9,6.9H62.3v1.9h-4l0-1.9H38.5
		c-3.8,0-6.9-3.1-6.9-6.9v-87.5c0-3.8,3.1-6.9,6.9-6.9h2.9v-4h-2.9c-6,0-10.9,4.9-10.9,10.9v87.5c0,6,4.9,10.9,10.9,10.9h149
		c6,0,10.9-4.9,10.9-10.9v-76.2V131.5z"/>
	<rect x="67.2" y="113.3" width="4.5" height="4"/>
	<path d="M105.4,141.4h-4c-5,7.6-7.9,16.7-7.9,26.5c0,8.8,2.4,17.1,6.5,24.3l3.7,0l0,4l-1,0c8.8,12.2,23.1,20.1,39.2,20.1
		c16.1,0,30.4-7.9,39.2-20.1h-1v-4h3.6c4.2-7.1,6.6-15.4,6.6-24.3c0-9.8-2.9-18.9-7.9-26.5h-4.5v-4h1.5
		c-8.9-10.9-22.4-17.9-37.5-17.9s-28.7,7-37.5,17.9h1V141.4z M186.3,167.9c0,24.5-19.9,44.4-44.4,44.4c-24.5,0-44.4-19.9-44.4-44.4
		c0-24.5,19.9-44.4,44.4-44.4C166.4,123.5,186.3,143.4,186.3,167.9z"/>
	<path d="M141.9,132.9c-19.3,0-35,15.7-35,35s15.7,35,35,35c19.3,0,35-15.7,35-35S161.2,132.9,141.9,132.9z M110.9,167.9
		c0-17.1,13.9-31,31-31s31,13.9,31,31s-13.9,31-31,31S110.9,185,110.9,167.9z"/>
	<path d="M101.4,141.4h4v-4h-1H80c-0.4,1.4-0.9,2.7-1.5,4H101.4z"/>
	<polygon points="103.7,192.2 100,192.2 62.3,191.7 62.3,195.7 102.7,196.2 103.7,196.2 	"/>
	<polygon points="177.9,137.4 177.9,141.4 182.4,141.4 194.4,141.4 196.4,141.4 196.4,137.4 194.4,137.4 179.4,137.4 	"/>
	<polygon points="180.1,192.2 180.1,196.2 181.1,196.2 194.4,196.2 196.4,196.2 196.4,192.2 194.4,192.2 183.7,192.2 	"/>
	<path d="M123.7,114h36.1c3.5,0,6.3-2.8,6.3-6.3s-2.8-6.3-6.3-6.3h-36.1c-3.5,0-6.3,2.8-6.3,6.3S120.2,114,123.7,114z M123.7,105.4
		h36.1c1.3,0,2.3,1,2.3,2.3c0,1.3-1,2.3-2.3,2.3h-36.1c-1.3,0-2.3-1-2.3-2.3C121.4,106.4,122.4,105.4,123.7,105.4z"/>
	<path d="M179.1,126.6c0,3.5,2.8,6.3,6.3,6.3c3.5,0,6.3-2.8,6.3-6.3c0-3.5-2.8-6.3-6.3-6.3C181.9,120.3,179.1,123.1,179.1,126.6z
		 M185.4,128.9c-1.3,0-2.3-1-2.3-2.3c0-1.3,1-2.3,2.3-2.3s2.3,1,2.3,2.3C187.7,127.9,186.7,128.9,185.4,128.9z"/>
	<path d="M41.4,117.3h25.8v-4v-8.7H41.4v8.7V117.3z M45.4,108.6h17.8v4.7H45.4V108.6z"/>
	<path d="M71.7,117.3h5.5v-2.1h4v2.1h16.3v-4v-8.7H71.7v8.7V117.3z M75.7,113.3v-4.7h17.8v4.7H75.7z"/>
	<path d="M62.3,191.7v-12.8c2.1-16,7.4-25.2,11.5-30.1c1.9-2.3,3.5-4.8,4.7-7.4c0.6-1.3,1.1-2.6,1.5-4c0.8-2.8,1.2-5.6,1.2-8.5
		v-11.6v-2.1h-4v2.1v11.6c0,6.3-2.3,12.4-6.4,17.3c-4.5,5.4-10.3,15.3-12.4,32.3l0,40.1l0,1.9h4v-1.9v-22.9V191.7z"/>
</g>
</svg>
