<?xml version="1.0" encoding="utf-8"?>
<!-- Generator: Adobe Illustrator 28.1.0, SVG Export Plug-In . SVG Version: 6.00 Build 0)  -->
<svg version="1.1" id="Vrstva_1" xmlns="http://www.w3.org/2000/svg" xmlns:xlink="http://www.w3.org/1999/xlink" x="0px" y="0px"
	 viewBox="0 0 283.5 283.5" style="enable-background:new 0 0 283.5 283.5;" xml:space="preserve">
<style type="text/css">
	.st0{fill:none;}
	.st1{fill:#020203;}
</style>
<g>
	<path class="st0" d="M79.7,160.3v-37.5c-0.5,0.3-0.9,0.6-1.4,0.9c0.5,0.4,0.9,1,0.9,1.7c0,1.1-0.9,2-2,2h-6.9
		c-2.8,1-5.8,1.7-8.8,2.1v30.9H79.7z M77.2,144.6H64c-1.1,0-2-0.9-2-2s0.9-2,2-2h13.2c1.1,0,2,0.9,2,2S78.3,144.6,77.2,144.6z
		 M64,131.9h13.2c1.1,0,2,0.9,2,2s-0.9,2-2,2H64c-1.1,0-2-0.9-2-2S62.9,131.9,64,131.9z"/>
	<path class="st0" d="M211.6,91.5H100.7c-0.4,2-0.8,4.1-1.5,6h121.1C219,94,215.6,91.5,211.6,91.5z M149.3,96.7h-13.9
		c-1.1,0-2-0.9-2-2s0.9-2,2-2h13.9c1.1,0,2,0.9,2,2S150.4,96.7,149.3,96.7z M212.8,96.7h-13.9c-1.1,0-2-0.9-2-2s0.9-2,2-2h13.9
		c1.1,0,2,0.9,2,2S213.9,96.7,212.8,96.7z"/>
	<path class="st0" d="M225.5,80H101.3c0.1,1.2,0.1,2.3,0.1,3.5c0,1.3-0.1,2.7-0.2,4h110.4c7.4,0,13.4,6,13.4,13.4v75.2
		c0.1,3.5-1.3,6.9-3.8,9.4c-2.5,2.6-6,4-9.6,4H70.9c-7.4,0-13.4-6-13.4-13.4v-46.3c-0.8,0-1.7,0.1-2.5,0.1c-0.8,0-1.6,0-2.4-0.1
		v65.7h177.2V84.3C229.8,81.9,227.9,80,225.5,80z M142.4,86.7c-1.8,0-3.2-1.4-3.2-3.2s1.4-3.2,3.2-3.2c1.8,0,3.2,1.4,3.2,3.2
		S144.2,86.7,142.4,86.7z"/>
	<path class="st0" d="M182.6,126.3l9.9,9.6l4.8-5.4c0.4-0.4,0.9-0.7,1.4-0.7c0.5,0,1.1,0.2,1.5,0.6l9.6,9.9V113
		c0-0.2-0.1-0.3-0.3-0.3h-46.8c-0.2,0-0.3,0.1-0.3,0.3v27.8l17.5-14.7C180.7,125.5,181.9,125.5,182.6,126.3z M201.8,114.1
		c3.7,0,6.7,3,6.7,6.7s-3,6.7-6.7,6.7s-6.7-3-6.7-6.7S198.1,114.1,201.8,114.1z"/>
	<path class="st0" d="M221,160.3v-58.8H97.8c-3.1,7.3-8,13.6-14.1,18.4v40.4H221z M158.4,113c0-2.4,1.9-4.3,4.3-4.3h46.8
		c2.4,0,4.3,1.9,4.3,4.3v35.8c0,2.4-1.9,4.3-4.3,4.3h-46.8c-2.4,0-4.3-1.9-4.3-4.3V113z M93.5,112.8h47.8c1.1,0,2,0.9,2,2
		s-0.9,2-2,2H93.5c-1.1,0-2-0.9-2-2S92.4,112.8,93.5,112.8z M93.5,121.4h47.8c1.1,0,2,0.9,2,2s-0.9,2-2,2H93.5c-1.1,0-2-0.9-2-2
		S92.4,121.4,93.5,121.4z M93.5,130h47.8c1.1,0,2,0.9,2,2s-0.9,2-2,2H93.5c-1.1,0-2-0.9-2-2S92.4,130,93.5,130z M93.5,138.7h47.8
		c1.1,0,2,0.9,2,2s-0.9,2-2,2H93.5c-1.1,0-2-0.9-2-2S92.4,138.7,93.5,138.7z"/>
	<path class="st0" d="M231.9,199.6H48.6v-0.1H33.8v3.2c0,2,1.6,3.6,3.6,3.6h208c1.9,0,3.5-1.6,3.5-3.6v-3.2h-17V199.6z"/>
	<circle class="st0" cx="201.8" cy="120.8" r="2.7"/>
	<path class="st0" d="M194.1,140c-0.4,0.4-0.9,0.6-1.4,0.7c-0.5,0-1.1-0.2-1.5-0.6l-10.1-9.8L162.4,146v2.8c0,0.2,0.1,0.3,0.3,0.3
		h46.8c0.2,0,0.3-0.1,0.3-0.3V146l-10.9-11.3L194.1,140z"/>
	<path class="st0" d="M81.7,164.3H61.5v11.8c0,5.2,4.2,9.4,9.4,9.4h140.7c2.6,0,5-1,6.8-2.8c1.7-1.8,2.7-4.1,2.6-6.6v-11.8H83.7
		H81.7z M106.1,179.9H76.2c-1.1,0-2-0.9-2-2s0.9-2,2-2h29.9c1.1,0,2,0.9,2,2S107.2,179.9,106.1,179.9z M176.6,170.2h30
		c1.1,0,2,0.9,2,2s-0.9,2-2,2h-30c-1.1,0-2-0.9-2-2S175.5,170.2,176.6,170.2z M176.6,175.9h30c1.1,0,2,0.9,2,2s-0.9,2-2,2h-30
		c-1.1,0-2-0.9-2-2S175.5,175.9,176.6,175.9z M126.3,170.2h30c1.1,0,2,0.9,2,2s-0.9,2-2,2h-30c-1.1,0-2-0.9-2-2
		S125.2,170.2,126.3,170.2z M126.3,175.9h30c1.1,0,2,0.9,2,2s-0.9,2-2,2h-30c-1.1,0-2-0.9-2-2S125.2,175.9,126.3,175.9z
		 M108.1,172.2c0,1.1-0.9,2-2,2H76.2c-1.1,0-2-0.9-2-2s0.9-2,2-2h29.9C107.2,170.2,108.1,171.1,108.1,172.2z"/>
	<path d="M52.6,129.8c-1.4-0.1-2.7-0.2-4-0.4v66h4V129.8z"/>
	<rect x="48.6" y="199.5" width="183.3" height="0.1"/>
	<path d="M225.5,80c2.4,0,4.3,1.9,4.3,4.3v111.2h4V84.3c0-4.6-3.7-8.3-8.3-8.3H100.8c0.2,1.3,0.4,2.7,0.5,4H225.5z"/>
	<path d="M70.9,189.5h140.7c3.7,0,7.1-1.4,9.6-4c2.5-2.5,3.8-5.9,3.8-9.4v-75.2c0-7.4-6-13.4-13.4-13.4H101.2
		c-0.1,1.4-0.3,2.7-0.5,4h110.9c4,0,7.4,2.5,8.8,6h2.6v4h-2v58.8h2v4h-2v11.8c0,2.5-0.9,4.8-2.6,6.6c-1.8,1.8-4.2,2.8-6.8,2.8H70.9
		c-5.2,0-9.4-4.2-9.4-9.4v-11.8h-2v-4h2v-30.9c-1.3,0.2-2.6,0.3-4,0.4v46.3C57.5,183.5,63.5,189.5,70.9,189.5z"/>
	<path d="M233.8,195.5h-4H52.6h-4H29.8v7.2c0,4.2,3.4,7.6,7.6,7.6h208c4.1,0,7.5-3.4,7.5-7.6v-7.2H233.8z M248.9,202.7
		c0,2-1.6,3.6-3.5,3.6h-208c-2,0-3.6-1.6-3.6-3.6v-3.2h14.8h183.3h17V202.7z"/>
	<path d="M142.4,80.3c-1.8,0-3.2,1.4-3.2,3.2s1.4,3.2,3.2,3.2c1.8,0,3.2-1.4,3.2-3.2S144.2,80.3,142.4,80.3z"/>
	<path d="M223,101.5v-4h-2.6H99.2c-0.4,1.4-0.9,2.7-1.5,4H221H223z"/>
	<path d="M61.5,160.3h-2v4h2h20.2v-4h2v-40.4c-1.3,1-2.6,2-4,2.8v37.5H61.5z"/>
	<polygon points="81.7,160.3 81.7,164.3 83.7,164.3 221,164.3 223,164.3 223,160.3 221,160.3 83.7,160.3 	"/>
	<path d="M162.7,153.1h46.8c2.4,0,4.3-1.9,4.3-4.3V113c0-2.4-1.9-4.3-4.3-4.3h-46.8c-2.4,0-4.3,1.9-4.3,4.3v35.8
		C158.4,151.2,160.3,153.1,162.7,153.1z M162.4,140.8V113c0-0.2,0.1-0.3,0.3-0.3h46.8c0.2,0,0.3,0.1,0.3,0.3v27.3l3.4,3.5l-2.9,2.8
		l-0.6-0.6v2.8c0,0.2-0.1,0.3-0.3,0.3h-46.8c-0.2,0-0.3-0.1-0.3-0.3V146l-0.8,0.7l-2.6-3.1L162.4,140.8z"/>
	<path d="M162.4,146l18.7-15.7l10.1,9.8c0.4,0.4,0.9,0.6,1.5,0.6c0.5,0,1.1-0.3,1.4-0.7l4.8-5.3l10.9,11.3l0.6,0.6l2.9-2.8l-3.4-3.5
		l-9.6-9.9c-0.4-0.4-0.9-0.6-1.5-0.6c-0.6,0-1.1,0.3-1.4,0.7l-4.8,5.4l-9.9-9.6c-0.7-0.7-1.9-0.8-2.7-0.1l-17.5,14.7l-3.4,2.8
		l2.6,3.1L162.4,146z"/>
	<path d="M201.8,127.5c3.7,0,6.7-3,6.7-6.7s-3-6.7-6.7-6.7s-6.7,3-6.7,6.7S198.1,127.5,201.8,127.5z M201.8,118.1
		c1.5,0,2.7,1.2,2.7,2.7s-1.2,2.7-2.7,2.7s-2.7-1.2-2.7-2.7S200.3,118.1,201.8,118.1z"/>
	<path d="M79.2,125.3c0-0.7-0.4-1.3-0.9-1.7c-2.5,1.5-5.2,2.7-8,3.7h6.9C78.3,127.3,79.2,126.4,79.2,125.3z"/>
	<path d="M64,135.9h13.2c1.1,0,2-0.9,2-2s-0.9-2-2-2H64c-1.1,0-2,0.9-2,2S62.9,135.9,64,135.9z"/>
	<path d="M77.2,140.6H64c-1.1,0-2,0.9-2,2s0.9,2,2,2h13.2c1.1,0,2-0.9,2-2S78.3,140.6,77.2,140.6z"/>
	<path d="M93.5,116.8h47.8c1.1,0,2-0.9,2-2s-0.9-2-2-2H93.5c-1.1,0-2,0.9-2,2S92.4,116.8,93.5,116.8z"/>
	<path d="M93.5,125.4h47.8c1.1,0,2-0.9,2-2s-0.9-2-2-2H93.5c-1.1,0-2,0.9-2,2S92.4,125.4,93.5,125.4z"/>
	<path d="M93.5,134h47.8c1.1,0,2-0.9,2-2s-0.9-2-2-2H93.5c-1.1,0-2,0.9-2,2S92.4,134,93.5,134z"/>
	<path d="M93.5,142.7h47.8c1.1,0,2-0.9,2-2s-0.9-2-2-2H93.5c-1.1,0-2,0.9-2,2S92.4,142.7,93.5,142.7z"/>
	<path d="M74.2,172.2c0,1.1,0.9,2,2,2h29.9c1.1,0,2-0.9,2-2s-0.9-2-2-2H76.2C75.1,170.2,74.2,171.1,74.2,172.2z"/>
	<path d="M106.1,175.9H76.2c-1.1,0-2,0.9-2,2s0.9,2,2,2h29.9c1.1,0,2-0.9,2-2S107.2,175.9,106.1,175.9z"/>
	<path d="M126.3,174.2h30c1.1,0,2-0.9,2-2s-0.9-2-2-2h-30c-1.1,0-2,0.9-2,2S125.2,174.2,126.3,174.2z"/>
	<path d="M149.3,92.7h-13.9c-1.1,0-2,0.9-2,2s0.9,2,2,2h13.9c1.1,0,2-0.9,2-2S150.4,92.7,149.3,92.7z"/>
	<path d="M212.8,92.7h-13.9c-1.1,0-2,0.9-2,2s0.9,2,2,2h13.9c1.1,0,2-0.9,2-2S213.9,92.7,212.8,92.7z"/>
	<path d="M126.3,179.9h30c1.1,0,2-0.9,2-2s-0.9-2-2-2h-30c-1.1,0-2,0.9-2,2S125.2,179.9,126.3,179.9z"/>
	<path d="M176.6,174.2h30c1.1,0,2-0.9,2-2s-0.9-2-2-2h-30c-1.1,0-2,0.9-2,2S175.5,174.2,176.6,174.2z"/>
	<path d="M176.6,179.9h30c1.1,0,2-0.9,2-2s-0.9-2-2-2h-30c-1.1,0-2,0.9-2,2S175.5,179.9,176.6,179.9z"/>
	<path class="st1" d="M55.1,127.9c15.6,0,29.8-8,37.9-21.3c0.1-0.1,0.2-0.2,0.2-0.3c4.1-6.8,6.2-14.7,6.2-22.8
		c0-1.6-0.1-3.2-0.3-4.8c0-0.1,0-0.2,0-0.2c-2.2-19.1-16.5-35-35.8-38.6l-1.2-0.2h-0.2c-2.2-0.3-4.5-0.5-6.8-0.5
		c-19.3,0-36.3,12.4-42.3,30.7c-0.8,2.6-1.4,5.2-1.8,7.9c-0.3,1.9-0.4,3.9-0.4,5.8c0,0.6,0,1.1,0,1.7c0.3,7.4,2.4,14.7,6.2,21
		c0.1,0.1,0.1,0.2,0.2,0.3c0.4,0.4,0.8,0.9,1.1,1.3c3.6,5.5,8.4,9.9,13.8,13.3c0.2,0.2,0.4,0.3,0.6,0.4
		C39.2,125.6,47,127.9,55.1,127.9z M76.5,47.9c10.7,6.7,18,17.7,19.6,30.3c-1,1.1-2.3,2.6-2.8,3.7c-0.1,0.1-0.5,0.2-0.7,0.3
		c-0.7,0.2-1.6,0.5-2,1.4c-0.3,0.6-0.3,1.3,0,2c0.5,1.3,0.9,4.6-0.8,6.3c-2.3,2.3-3.7,4.5-3.7,8.4c0,3-2.5,6.7-4.9,10
		c-0.3,0.4-0.6,0.7-0.9,1.1c-0.3,0.4-0.7,0.7-1,1.1c-0.5,0.6-1.1,1.1-1.7,1.6c-0.9,0.4-1.8,0.9-2.8,1.3c-0.3,0.2-0.7,0.3-1,0.4
		c-0.2-0.3-0.4-0.8-0.7-1.6c-1-2.6-1.9-6.2-1.9-7.8c0-1,0.3-1.6,0.6-2.4c0.4-0.8,0.8-1.7,0.8-3.2c0-1.7-0.8-2.7-1.4-3.5
		c-0.5-0.7-0.8-1-0.8-1.6c0-2.7-1.5-4.2-2.7-5.4l-0.1-0.1c-1.3-1.3-3.3-0.5-5.4,0.3c-1.1,0.5-2.4,1-3.3,1c-1.6,0-4.5-2.8-6-5.2
		c-1.3-2-0.7-9.6,1.7-11.4c3.5-2.6,4.5-5.5,4.6-5.6c0.2-0.6,0-1.4-0.6-1.7c-1-0.7-1.2-1.4-1.3-1.8c-0.2-1.6,1.2-3.5,2.1-4.4
		c0.4-0.4,1.9-0.5,2.8-0.6c1.4-0.1,2.6-0.2,3.3-1c1.1-1.1,0.8-2.5,0.6-3.6c-0.1-0.4-0.2-0.9-0.2-1.1c0.1-0.3,1.3-1.3,3.9-2.2
		c2.3-0.8,5.8-4.2,6.1-4.5L76.5,47.9z M15.7,70.7C21.1,53.6,36.9,42.1,55,42.1c1.5,0,3,0.1,4.5,0.3l-0.7,1.3c0,0.1-3.7,5.7-8.6,6.6
		c-5.8,1.1-6.6,1.6-8.2,3.2c-0.5,0.5-1,0.6-1,0.6s-0.1-0.2-0.1-0.5c0-0.6,0.1-1.3,0.3-1.9c0.2-1.1,0.5-2.3-0.5-3.1s-2.4-0.3-3,0
		l-0.6,0.2c-2,0.8-3.7,1.5-4,3.1c-0.2,0.9,0.2,1.7,0.6,2.3c-1.2,0.5-3.1,1.6-2.2,4.3c0.3,1,0.6,1.7,0.8,2.3c0.2,0.4,0.4,1,0.4,1.1
		c0,0-0.1,0.1-0.3,0.4c-0.1-0.1-0.3-0.2-0.4-0.3c-0.6-0.4-1.4-0.9-2.4-0.9c-2.3,0-2.3,2.3-2.3,3.1c0,0.3,0,0.7,0,0.9
		c-0.2,0-0.6,0-0.8,0c-1,0-2.3,0-3.6,0.8c-1,0.6-1.7,1.6-2.1,3c-0.2,0.6-0.5,1.3-0.9,1.9c-0.1,0.2-0.2,0.3-0.3,0.5
		c-0.2,0.3-0.5,0.6-0.7,0.9c-0.1,0.2-0.3,0.3-0.4,0.4c-0.4,0.4-0.9,0.8-1.4,1.2c-0.2,0.1-0.3,0.3-0.5,0.4c-0.7,0.5-1.4,0.9-2.1,1.3
		C14.8,73.9,15.2,72.3,15.7,70.7z M32.3,114c-0.3,0.6-0.5,2.2-0.7,3.6c-4.3-3-8.1-6.8-11.1-11.3c-0.4-0.6-0.8-1.1-1.3-1.6
		c-3.5-5.9-5.4-12.6-5.7-19.5c0-0.4,0-0.9,0-1.3c0.1,0.2,0.1,0.4,0.2,0.6c0.1,0.4,0.3,0.7,0.5,1c0.3,0.6,0.7,1.1,1.2,1.6
		c0.2,0.2,0.4,0.4,0.7,0.5l0.2,0.1c0.2,0.1,0.3,0.1,0.5,0.1s0.4,0.1,0.7,0c0.2,0,0.5-0.1,0.7-0.1l0.5-0.1h0.2l0.2-0.1
		c0.5-0.1,0.7-0.1,1,0.1c0.8,0.3,2.2,1.2,3.9,2.3c0.7,0.5,1.4,1,2,1.4c1.2,0.9,1.8,1.4,2,1.6c0.4,0.4,0.5,0.7,0.7,1.2
		c0.3,0.8,0.7,1.8,2.3,2.7c0.5,0.3,1.3,0.6,2.1,0.9c1.4,0.6,5.1,2,5.4,2.9c0,0.7-0.2,1-0.6,1.4c-0.4,0.5-1.1,1.3-1.1,2.6
		c0,0.3,0,0.6,0.1,0.9c0.1,0.4,0.2,0.8,0.3,1.2c0.3,1.2,0.6,2.8,0.1,3.3s-1,0.7-1.6,1C34.6,111.5,33.2,112.1,32.3,114z M34.4,119.3
		c0.1-1.3,0.4-3.6,0.5-4c0.5-0.9,1-1.2,1.9-1.6c0.7-0.3,1.7-0.7,2.5-1.6c1.7-1.7,1.1-4.2,0.7-6.1c-0.1-0.4-0.2-0.7-0.2-1.1
		c0-0.2,0-0.3,0-0.4c0-0.2,0-0.2,0.4-0.7c0.5-0.6,1.3-1.6,1.3-3.4c0-2.8-3.9-4.3-7.3-5.6c-0.8-0.3-1.5-0.6-1.9-0.8
		c-0.6-0.3-0.7-0.5-0.9-1.1c-0.2-0.6-0.5-1.4-1.3-2.2c-0.5-0.5-1.2-1.1-2.3-1.9c-0.7-0.5-1.4-1-2.1-1.5c-0.9-0.6-3-2-4.3-2.6
		c-1.1-0.5-2.2-0.4-2.8-0.3l-1,0.2c-0.1,0-0.1,0-0.2,0c-0.2-0.3-0.5-0.6-0.6-0.9c-0.1-0.2-0.2-0.4-0.3-0.7c-0.1-0.2-0.1-0.3-0.2-0.5
		l-0.1-0.2c-0.1-0.3-0.1-0.7-0.2-1c-0.2-1.3,0-2.7,0.2-3.7c0.7-0.4,1.3-0.8,1.9-1.2c0.2-0.1,0.4-0.3,0.6-0.4c0.6-0.5,1.2-1,1.7-1.5
		c0.2-0.2,0.3-0.4,0.5-0.5c0.3-0.4,0.6-0.8,0.9-1.2c0.1-0.2,0.3-0.4,0.4-0.6c0.5-0.9,1-1.8,1.2-2.7c0.2-0.7,0.4-1.1,0.8-1.3
		c0.5-0.3,1.3-0.3,2-0.3c1,0,2.1,0,2.9-0.8c0.9-0.9,0.9-2,0.9-2.9c0.1,0,0.1,0.1,0.1,0.1c0.7,0.5,2.4,1.7,4.2-0.1s1.2-3.2,0.6-4.7
		c-0.2-0.5-0.5-1.2-0.8-2.1C34,57.2,34,57.1,34,57.1c0.1-0.2,0.7-0.4,1-0.5c0.8-0.3,1.8-0.6,2.1-1.8c0.3-1.1-0.6-2-0.9-2.2
		c-0.1-0.1-0.2-0.2-0.3-0.3c0.4-0.3,1.2-0.6,1.9-0.9c-0.1,0.6-0.2,1.3-0.2,2c0,2.2,1.3,3,1.8,3.2c1.3,0.6,3.1,0.1,4.3-1.2
		c1.1-1.1,1.4-1.4,6.6-2.4c6.2-1.1,10.4-7.7,10.6-8l1.4-2.4h0.1c3.9,0.7,7.6,2,11,3.8c-1.3,1.3-3.7,3.3-4.9,3.8
		c-2.7,0.9-5.9,2.6-5.9,4.9c0,0.7,0.1,1.3,0.2,1.8c0.1,0.3,0.1,0.7,0.2,0.8c-0.3,0.1-1,0.1-1.5,0.2c-1.6,0.1-3.5,0.3-4.6,1.4
		c-1.2,1.2-3.2,4-2.9,6.8c0.1,0.9,0.5,2.1,1.6,3.2c-0.5,0.8-1.4,2.1-3.1,3.3c-3.8,2.8-4.4,12.2-2.5,15.3c1.4,2.3,5.1,6.6,8.6,6.6
		c1.4,0,2.9-0.6,4.4-1.2c0.8-0.3,1.9-0.8,2.3-0.8c1.1,1.1,1.8,1.9,1.8,3.3c0,1.6,0.8,2.6,1.4,3.4c0.5,0.7,0.8,1.1,0.8,1.7
		c0,0.8-0.2,1.3-0.5,2c-0.4,0.8-0.8,1.9-0.8,3.6c0,2.2,1.1,6.3,2.1,8.9c0.6,1.5,1.2,2.6,1.8,3.1c0.2,0.2,0.4,0.3,0.6,0.5
		c0.2,0.1,0.4,0.2,0.7,0.2c0.2,0,0.4,0,0.5-0.1c0.7-0.3,1.4-0.6,2.1-0.9c1.1-0.5,2.1-1,3.1-1.5c0.1,0,0.2-0.1,0.3-0.2
		c0.7-0.6,1.4-1.2,2-1.9c0.4-0.4,0.8-0.8,1.1-1.3c0.4-0.4,0.7-0.9,1-1.3c2.6-3.7,5.4-7.9,5.4-11.8c0-3,0.9-4.5,2.8-6.4
		c2.4-2.4,2.5-6.5,1.7-9c0.7-0.2,1.9-0.6,2.4-1.9c0.1-0.2,0.2-0.4,0.4-0.7c0.4,0.6,0.5,1,0.4,1.4c0,7.5-2,14.8-5.8,21.1
		c-0.1,0.1-0.1,0.2-0.2,0.3c-7.6,12.5-20.8,19.9-35.4,19.9C47.6,124.9,40.5,122.9,34.4,119.3z"/>
</g>
</svg>
