<?xml version="1.0" ?><svg style="enable-background:new 0 0 512 512;" version="1.1" viewBox="0 0 512 512" xml:space="preserve" xmlns="http://www.w3.org/2000/svg" xmlns:xlink="http://www.w3.org/1999/xlink"><g id="_x31_9_x2C__Browser_x2C__internet_x2C__search_x2C__worldwide_x2C__scan"><g id="XMLID_858_"><g id="XMLID_83_"><circle cx="311.26" cy="205.996" id="XMLID_289_" r="7.166"/></g><g id="XMLID_82_"><path d="M122.55,213.385c-0.133,0-0.266-0.005-0.4-0.016c-1.894-0.151-3.538-1.363-4.243-3.127l-9.555-23.888     c-1.025-2.564,0.222-5.474,2.786-6.5c2.563-1.024,5.474,0.221,6.5,2.786l5.811,14.528l9.146-15.244     c1.42-2.368,4.491-3.136,6.86-1.715c2.368,1.421,3.136,4.492,1.715,6.86l-14.333,23.888     C125.928,212.471,124.295,213.385,122.55,213.385z" id="XMLID_468_"/></g><g id="XMLID_81_"><path d="M151.213,213.385c-1.746,0-3.378-0.914-4.287-2.428l-14.333-23.888c-1.42-2.368-0.653-5.439,1.715-6.86     c2.367-1.42,5.438-0.654,6.86,1.715l9.146,15.244l5.812-14.528c1.026-2.564,3.936-3.811,6.5-2.786     c2.564,1.026,3.811,3.936,2.786,6.5l-9.555,23.888c-0.706,1.764-2.35,2.976-4.243,3.127     C151.479,213.379,151.346,213.385,151.213,213.385z" id="XMLID_467_"/></g><g id="XMLID_80_"><path d="M189.435,213.385c-0.133,0-0.266-0.005-0.4-0.016c-1.894-0.151-3.538-1.363-4.243-3.127l-9.555-23.888     c-1.025-2.564,0.222-5.474,2.786-6.5c2.563-1.024,5.474,0.221,6.5,2.786l5.812,14.528l9.146-15.244     c1.42-2.368,4.491-3.136,6.86-1.715c2.368,1.421,3.136,4.492,1.715,6.86l-14.333,23.888     C192.813,212.471,191.181,213.385,189.435,213.385z" id="XMLID_466_"/></g><g id="XMLID_79_"><path d="M218.098,213.385c-1.746,0-3.378-0.914-4.287-2.428l-14.333-23.888c-1.42-2.368-0.653-5.439,1.715-6.86     c2.367-1.42,5.438-0.654,6.86,1.715l9.146,15.244l5.812-14.528c1.026-2.564,3.938-3.811,6.5-2.786     c2.564,1.026,3.811,3.936,2.786,6.5l-9.555,23.888c-0.706,1.764-2.35,2.976-4.243,3.127     C218.365,213.379,218.231,213.385,218.098,213.385z" id="XMLID_465_"/></g><g id="XMLID_78_"><path d="M256.32,213.385c-0.133,0-0.266-0.005-0.4-0.016c-1.894-0.151-3.538-1.363-4.243-3.127l-9.555-23.888     c-1.025-2.564,0.222-5.474,2.786-6.5c2.562-1.024,5.474,0.221,6.5,2.786l5.811,14.528l9.146-15.244     c1.421-2.368,4.49-3.137,6.859-1.715c2.368,1.421,3.136,4.492,1.715,6.86l-14.332,23.888     C259.698,212.471,258.066,213.385,256.32,213.385z" id="XMLID_464_"/></g><g id="XMLID_77_"><path d="M284.983,213.385c-1.746,0-3.378-0.914-4.286-2.427l-14.333-23.888c-1.421-2.368-0.653-5.439,1.715-6.86     c2.368-1.42,5.438-0.652,6.859,1.715l9.147,15.244l5.811-14.528c1.025-2.563,3.936-3.81,6.499-2.786     c2.564,1.026,3.812,3.936,2.786,6.5l-9.555,23.888c-0.706,1.764-2.35,2.976-4.243,3.127     C285.25,213.379,285.116,213.385,284.983,213.385z" id="XMLID_463_"/></g><g id="XMLID_76_"><path d="M409.34,471.482c-15.961,0-31.922-6.076-44.073-18.228l-56.707-56.707c-1.953-1.952-1.953-5.118,0-7.07     c1.951-1.953,5.119-1.953,7.07,0l56.707,56.707c20.403,20.401,53.602,20.403,74.007,0c20.402-20.404,20.402-53.604,0-74.007     l-56.707-56.707c-1.953-1.952-1.953-5.118,0-7.07c1.951-1.953,5.119-1.953,7.07,0l56.707,56.707     c24.303,24.302,24.303,63.845,0,88.147C441.264,465.406,425.302,471.482,409.34,471.482z" id="XMLID_462_"/></g><g id="XMLID_75_"><path d="M220.16,420.785c-51.44,0-102.881-19.581-142.042-58.742c-78.322-78.322-78.322-205.762,0-284.084     s205.762-78.322,284.084,0s78.322,205.762,0,284.084C323.041,401.204,271.601,420.785,220.16,420.785z M220.16,29.213     c-48.879,0-97.759,18.605-134.971,55.817c-74.423,74.423-74.423,195.519,0,269.942c74.423,74.421,195.519,74.421,269.942,0     c74.423-74.424,74.423-195.519,0-269.942C317.92,47.818,269.04,29.213,220.16,29.213z" id="XMLID_459_"/></g><g id="XMLID_74_"><path d="M220.161,361.453c-36.24,0-72.479-13.795-100.069-41.384c-23.403-23.402-37.918-54.424-40.873-87.35     c-0.125-1.398,0.343-2.785,1.29-3.821c0.947-1.036,2.286-1.626,3.69-1.626h271.923c1.403,0,2.743,0.59,3.69,1.626     c0.947,1.036,1.415,2.423,1.29,3.821c-2.955,32.926-17.471,63.948-40.874,87.35C292.64,347.658,256.4,361.453,220.161,361.453z      M127.163,312.999c51.279,51.276,134.716,51.278,185.995,0c20.453-20.454,33.602-47.169,37.38-75.727H89.784     C93.561,265.83,106.709,292.545,127.163,312.999z" id="XMLID_456_"/></g><g id="XMLID_73_"><path d="M340.689,160.832H99.631c-1.756,0-3.383-0.921-4.287-2.427s-0.951-3.375-0.125-4.924     c6.564-12.32,14.934-23.607,24.874-33.548c55.179-55.178,144.959-55.178,200.137,0l0,0c9.94,9.94,18.309,21.228,24.874,33.548     c0.825,1.549,0.777,3.419-0.126,4.924C344.072,159.911,342.445,160.832,340.689,160.832z M108.272,150.832h223.775     c-5.334-8.613-11.665-16.603-18.89-23.828c-51.279-51.279-134.716-51.279-185.995,0     C119.938,134.229,113.606,142.219,108.272,150.832z" id="XMLID_453_"/></g><g id="XMLID_72_"><path d="M366.202,237.272H69.996c-2.761,0-5-2.239-5-5v-76.44c0-2.761,2.239-5,5-5h296.206c2.762,0,5,2.239,5,5     v76.44C371.202,235.034,368.964,237.272,366.202,237.272z M74.996,227.272h286.206v-66.44H74.996V227.272z" id="XMLID_450_"/></g></g></g><g id="Layer_1"/></svg>